<?xml version="1.0" encoding="utf-8"?>
<!-- Generator: Adobe Illustrator 25.2.0, SVG Export Plug-In . SVG Version: 6.00 Build 0)  -->
<svg version="1.1" id="Illustration" xmlns="http://www.w3.org/2000/svg" xmlns:xlink="http://www.w3.org/1999/xlink" x="0px"
	 y="0px" viewBox="0 0 3710 3710" style="enable-background:new 0 0 3710 3710;" xml:space="preserve">
<style type="text/css">
	.st0{fill:#D8DEE8;}
	.st1{fill:url(#SVGID_1_);}
	.st2{fill:url(#SVGID_2_);}
	.st3{fill:url(#SVGID_3_);}
	.st4{fill:url(#SVGID_4_);}
	.st5{fill:url(#SVGID_5_);}
	.st6{fill:url(#SVGID_6_);}
	.st7{fill:#FFFFFF;}
	.st8{fill:url(#SVGID_7_);}
	.st9{opacity:0.6;fill:url(#SVGID_8_);}
	.st10{opacity:0.6;fill:url(#SVGID_9_);}
	.st11{opacity:0.3;fill:#FFFFFF;}
	.st12{fill:url(#SVGID_10_);}
	.st13{fill:url(#SVGID_11_);}
	.st14{fill:url(#SVGID_12_);}
	.st15{fill:url(#SVGID_13_);}
	.st16{fill:url(#SVGID_14_);}
	.st17{fill:url(#SVGID_15_);}
	.st18{fill:url(#SVGID_16_);}
	.st19{fill:url(#SVGID_17_);}
	.st20{fill:url(#SVGID_18_);}
	.st21{fill:url(#SVGID_19_);}
	.st22{fill:url(#SVGID_20_);}
	.st23{fill:url(#SVGID_21_);}
	.st24{fill:url(#SVGID_22_);}
	.st25{fill:url(#SVGID_23_);}
	.st26{opacity:0.3;fill:url(#SVGID_24_);}
	.st27{fill:url(#SVGID_25_);}
	.st28{fill:url(#SVGID_26_);}
	.st29{fill:url(#SVGID_27_);}
	.st30{fill:url(#SVGID_28_);}
	.st31{fill:url(#SVGID_29_);}
	.st32{fill:url(#SVGID_30_);}
	.st33{fill:url(#SVGID_31_);}
	.st34{fill:url(#SVGID_32_);}
	.st35{fill:url(#SVGID_33_);}
	.st36{fill:url(#SVGID_34_);}
	.st37{opacity:0.3;fill:url(#SVGID_35_);}
	.st38{fill:url(#SVGID_36_);}
	.st39{fill:url(#SVGID_37_);}
	.st40{fill:url(#SVGID_38_);}
	.st41{fill:url(#SVGID_39_);}
	.st42{fill:url(#SVGID_40_);}
	.st43{fill:url(#SVGID_41_);}
	.st44{opacity:0.5;}
	.st45{fill:url(#SVGID_42_);}
</style>
<g>
	<g>
		<g>
			<path class="st0" d="M2853.71,1843.47l-717.88,34.28c-1.57,0.08-3.06-0.47-4.17-1.55l-228.38-219.42l-1107.02,39.06
				c-3.9,0.14-6.98-2.81-6.89-6.59c0.09-3.78,3.32-6.95,7.22-7.08l1109.5-38.38c1.61-0.06,3.14,0.52,4.27,1.62l228.21,219.49
				l713.09-33.56l102.19-112.5c1.08-1.19,2.51-1.89,4-1.95l105.55-4.31c3.05-0.12,5.46,2.48,5.37,5.82
				c-0.08,3.34-2.62,6.15-5.67,6.28l-103.24,4.29l-102.12,112.52C2856.66,1842.69,2855.21,1843.4,2853.71,1843.47z"/>
			<path class="st0" d="M2860.84,1782l-717.35,31.77c-1.56,0.07-3.06-0.49-4.16-1.56l-228.21-220.16l-1113.21,35.42
				c-3.9,0.12-6.98-2.84-6.89-6.62c0.09-3.78,3.32-6.94,7.22-7.06l1115.69-34.73c1.6-0.05,3.13,0.53,4.27,1.64l228.03,220.23
				l712.56-31.07l102.12-112.12c1.07-1.18,2.51-1.87,3.99-1.93l66.76-2.49c3.06-0.11,5.48,2.51,5.39,5.85
				c-0.08,3.35-2.63,6.15-5.69,6.27l-64.45,2.45l-102.05,112.14C2863.79,1781.22,2862.34,1781.93,2860.84,1782z"/>
			<path class="st0" d="M2867.97,1720.56l-716.82,29.27c-1.56,0.06-3.05-0.5-4.16-1.58l-228.03-220.9l-1071.92,30.4
				c-3.88,0.11-6.95-2.85-6.85-6.62c0.09-3.77,3.3-6.91,7.18-7.02l1074.4-29.72c1.6-0.04,3.13,0.54,4.26,1.65l227.86,220.96
				l712.04-28.58l102.05-111.74c1.07-1.18,2.51-1.87,3.99-1.92l38.98-1.32c3.07-0.1,5.49,2.52,5.41,5.88
				c-0.08,3.35-2.63,6.15-5.7,6.26l-36.67,1.27l-101.98,111.76C2870.92,1719.8,2869.47,1720.5,2867.97,1720.56z"/>
			<path class="st0" d="M2875.1,1659.16l-716.3,26.76c-1.56,0.06-3.05-0.51-4.16-1.59l-227.86-221.64l-1078.1,26.84
				c-3.88,0.09-6.94-2.88-6.85-6.65c0.09-3.77,3.3-6.9,7.18-6.99l1080.58-26.15c1.6-0.04,3.13,0.55,4.26,1.66l227.68,221.7
				l711.51-26.09l101.98-111.36c2.24-2.44,5.76-2.55,7.88-0.24c2.12,2.31,2.03,6.16-0.21,8.6l-103.58,113.21
				C2878.04,1658.41,2876.6,1659.1,2875.1,1659.16z"/>
			<path class="st0" d="M2819.83,2775.26c-1.45,0.15-2.89-0.31-3.97-1.39l-178.57-179.75c-1.06-1.06-1.63-2.58-1.59-4.23
				l16.8-693.51c0.08-3.42,2.74-6.32,5.93-6.48c3.2-0.16,5.71,2.48,5.63,5.9l-16.73,690.5l176.75,178.1
				c2.15,2.17,2.06,6.05-0.21,8.66C2822.75,2774.37,2821.28,2775.11,2819.83,2775.26z"/>
			<path class="st0" d="M2893.82,2743.49c-1.44,0.14-2.86-0.31-3.93-1.39l-193.85-196.33c-1.05-1.06-1.62-2.58-1.58-4.22
				l15.7-648.07c0.08-3.41,2.72-6.3,5.89-6.46c3.18-0.16,5.67,2.47,5.59,5.88l-15.63,645.1l192.02,194.68
				c2.14,2.17,2.04,6.03-0.21,8.62C2896.71,2742.61,2895.25,2743.35,2893.82,2743.49z"/>
			<path class="st0" d="M2950.89,2695.37c-1.43,0.14-2.84-0.32-3.91-1.4l-192.58-196.24c-1.04-1.06-1.61-2.57-1.57-4.21l14.6-602.92
				c0.08-3.4,2.7-6.28,5.86-6.44c3.15-0.16,5.64,2.46,5.55,5.86l-14.53,599.98l190.77,194.59c2.12,2.17,2.03,6.01-0.21,8.6
				C2953.76,2694.5,2952.31,2695.23,2950.89,2695.37z"/>
			<path class="st0" d="M3007.59,2647.56c-1.42,0.13-2.83-0.32-3.88-1.41l-191.32-196.15c-1.04-1.06-1.6-2.57-1.56-4.2l13.52-558.06
				c0.08-3.39,2.69-6.26,5.82-6.41c3.13-0.16,5.6,2.46,5.52,5.84l-13.45,555.16l189.53,194.5c2.11,2.17,2.02,6-0.21,8.57
				C3010.45,2646.7,3009.02,2647.43,3007.59,2647.56z"/>
			<path class="st0" d="M3047.83,2583.42c-1.41,0.13-2.81-0.34-3.86-1.42l-173.95-179.42c-1.03-1.06-1.59-2.57-1.55-4.19
				l12.44-513.48c0.08-3.38,2.67-6.24,5.78-6.39c3.11-0.16,5.57,2.45,5.48,5.83l-12.37,510.63l172.19,177.77
				c2.1,2.17,2.01,5.99-0.21,8.55C3050.67,2582.58,3049.24,2583.3,3047.83,2583.42z"/>
			<path class="st0" d="M1437.01,2439.25c-1.69,0.13-3.36-0.39-4.62-1.58c-2.51-2.39-2.41-6.57,0.23-9.35l246.84-259.55
				c1.24-1.3,2.89-2.09,4.59-2.19l911.14-56.43c3.22-0.2,5.75,2.42,5.67,5.85c-0.08,3.43-2.75,6.37-5.97,6.57l-908.49,56.9
				l-244.68,257.5C1440.4,2438.35,1438.7,2439.12,1437.01,2439.25z"/>
			<path class="st0" d="M1405.43,2382.16c-1.69,0.12-3.37-0.4-4.63-1.6c-2.52-2.4-2.42-6.59,0.23-9.37l247.66-259.27
				c1.24-1.3,2.89-2.08,4.61-2.18l914.11-53.77c3.22-0.19,5.77,2.44,5.68,5.87c-0.08,3.44-2.76,6.37-5.99,6.57l-911.46,54.25
				l-245.49,257.23C1408.83,2381.26,1407.12,2382.03,1405.43,2382.16z"/>
			<path class="st0" d="M1373.74,2324.86c-1.7,0.12-3.38-0.41-4.65-1.62c-2.53-2.41-2.43-6.61,0.23-9.38l248.48-258.99
				c1.24-1.3,2.9-2.08,4.62-2.18l917.09-51.09c3.23-0.18,5.79,2.46,5.7,5.9c-0.08,3.44-2.77,6.37-6.01,6.56l-914.43,51.58
				l-246.31,256.95C1377.15,2323.98,1375.44,2324.75,1373.74,2324.86z"/>
			<path class="st0" d="M1341.94,2267.37c-1.7,0.11-3.39-0.43-4.66-1.64c-2.54-2.43-2.44-6.63,0.23-9.4l249.31-258.7
				c1.25-1.29,2.91-2.07,4.64-2.16l920.1-48.39c3.25-0.17,5.8,2.48,5.72,5.93c-0.08,3.45-2.78,6.38-6.02,6.55l-917.42,48.89
				l-247.13,256.66C1345.36,2266.5,1343.65,2267.26,1341.94,2267.37z"/>
			<path class="st0" d="M787.08,2256.27c-1.8,0.11-3.59-0.44-4.94-1.69l-222.15-206.01c-1.32-1.22-2.04-2.94-2-4.78l11.63-479.91
				c0.04-1.84,0.85-3.61,2.23-4.95l324.71-313.2l1.54-63.55c0.09-3.76,3.29-6.84,7.15-6.87c3.85-0.03,6.9,2.98,6.81,6.74
				l-1.61,66.32c-0.04,1.8-0.82,3.54-2.16,4.83l-324.33,313.13l-11.48,473.83l219.86,204.11c2.69,2.5,2.58,6.82-0.23,9.67
				C790.71,2255.37,788.89,2256.15,787.08,2256.27z"/>
			<path class="st0" d="M857.68,2238.17c-1.79,0.11-3.57-0.44-4.9-1.68l-220.54-205.48c-1.31-1.22-2.03-2.93-1.98-4.76l11.58-478.18
				c0.04-1.83,0.84-3.6,2.22-4.93l322.42-311.84l2.19-90.45c0.09-3.75,3.26-6.8,7.09-6.83c3.83-0.03,6.85,2.98,6.76,6.73
				l-2.26,93.19c-0.04,1.8-0.82,3.53-2.14,4.82l-322.04,311.77l-11.44,472.13l218.26,203.58c2.67,2.49,2.57,6.8-0.23,9.63
				C861.28,2237.28,859.47,2238.05,857.68,2238.17z"/>
			<path class="st0" d="M927.78,2220.2c-1.78,0.11-3.54-0.44-4.87-1.68l-218.95-204.95c-1.3-1.22-2.01-2.93-1.97-4.75l11.54-476.46
				c0.04-1.82,0.84-3.59,2.2-4.91l320.15-310.49l3.17-130.69c0.09-3.74,3.24-6.77,7.04-6.79c3.8-0.02,6.8,2.99,6.71,6.72
				l-3.23,133.39c-0.04,1.79-0.81,3.52-2.13,4.8l-319.77,310.42l-11.4,470.43l216.69,203.05c2.65,2.48,2.55,6.78-0.23,9.6
				C931.35,2219.31,929.56,2220.09,927.78,2220.2z"/>
			<path class="st0" d="M1045.47,2239.81c-3.8,0.24-6.8-2.58-6.71-6.31l1.4-57.95l-194.58-183.7c-1.29-1.21-1.98-2.91-1.94-4.72
				l5.95-245.48c0.09-3.77,3.3-6.94,7.17-7.08c3.87-0.14,6.93,2.79,6.84,6.55l-5.87,242.49l194.34,183.67
				c1.26,1.18,1.94,2.86,1.9,4.65l-1.47,60.7C1052.41,2236.36,1049.26,2239.57,1045.47,2239.81z"/>
			<path class="st0" d="M1113.91,2235.46c-3.77,0.24-6.75-2.57-6.66-6.29l1.4-57.74l-193.19-183.09c-1.27-1.21-1.97-2.9-1.92-4.7
				l5.93-244.61c0.09-3.76,3.28-6.91,7.12-7.06c3.85-0.14,6.88,2.78,6.79,6.53l-5.85,241.63l192.95,183.06
				c1.25,1.19,1.92,2.85,1.88,4.63l-1.47,60.49C1120.8,2232.02,1117.68,2235.22,1113.91,2235.46z"/>
			<path class="st0" d="M1181.87,2231.13c-3.74,0.24-6.7-2.57-6.61-6.27l1.39-57.54l-191.82-182.48c-1.26-1.2-1.95-2.89-1.91-4.68
				l5.9-243.74c0.09-3.74,3.25-6.89,7.07-7.03c3.82-0.14,6.83,2.77,6.74,6.51l-5.83,240.77l191.58,182.46
				c1.24,1.18,1.91,2.83,1.87,4.62l-1.46,60.27C1188.72,2227.7,1185.62,2230.89,1181.87,2231.13z"/>
			<path class="st0" d="M1249.37,2226.83c-3.72,0.24-6.66-2.56-6.57-6.25l1.39-57.34l-190.46-181.88c-1.26-1.2-1.94-2.88-1.89-4.67
				l5.88-242.89c0.09-3.73,3.23-6.86,7.02-7c3.79-0.14,6.78,2.76,6.69,6.49l-5.81,239.92l190.22,181.85c1.23,1.18,1.9,2.83,1.85,4.6
				l-1.45,60.06C1256.16,2223.42,1253.09,2226.6,1249.37,2226.83z"/>
			<path class="st0" d="M1247.49,2026.91c-1.72,0.09-3.43-0.47-4.71-1.7c-2.57-2.47-2.46-6.7,0.23-9.45l184.39-188.17
				c1.27-1.29,2.96-2.06,4.71-2.14l520.18-22.5c3.45-0.15,6.17,2.61,6.09,6.16c-0.09,3.56-2.95,6.56-6.4,6.71l-517.46,22.74
				L1252.3,2024.7C1250.95,2026.07,1249.21,2026.81,1247.49,2026.91z"/>
			<path class="st0" d="M2613.37,2795.96c-1.49,0.15-2.96-0.31-4.06-1.4l-332.52-330.37l-620.42,49.8
				c-3.56,0.29-6.37-2.41-6.29-6.02l5.7-235.25c0.09-3.61,3.04-6.73,6.6-6.97c3.56-0.24,6.37,2.49,6.28,6.1l-5.54,228.56
				l616.46-49.06c1.6-0.13,3.11,0.42,4.21,1.51l333.92,332.11c2.21,2.19,2.11,6.11-0.21,8.76
				C2616.35,2795.06,2614.85,2795.82,2613.37,2795.96z"/>
			<path class="st0" d="M2717.2,2785.55c-1.47,0.15-2.92-0.31-4.01-1.4l-386.8-386.83l-617.05,47.4c-3.54,0.27-6.34-2.42-6.25-6.03
				l5.68-234.61c0.09-3.6,3.02-6.7,6.56-6.92c3.54-0.23,6.33,2.5,6.24,6.1l-5.52,227.94l613.12-46.67c1.59-0.12,3.1,0.43,4.19,1.52
				l388.14,388.57c2.18,2.18,2.09,6.08-0.21,8.71C2720.15,2784.65,2718.67,2785.4,2717.2,2785.55z"/>
			<path class="st0" d="M2590.48,2544.35c-1.49,0.13-2.96-0.35-4.07-1.46l-210.68-212.08l-613.7,45.02
				c-3.52,0.26-6.3-2.44-6.22-6.03l4.09-168.98c0.09-3.59,3.01-6.68,6.53-6.91c3.52-0.22,6.3,2.5,6.21,6.09l-3.93,162.37
				l609.79-44.31c1.58-0.12,3.08,0.44,4.17,1.54l212.18,213.8c2.21,2.23,2.12,6.16-0.21,8.78
				C2593.47,2543.48,2591.97,2544.22,2590.48,2544.35z"/>
			<path class="st0" d="M2588.72,2377.18c-1.49,0.11-2.97-0.38-4.07-1.5l-147.08-149.44l-609.54,41.34
				c-3.5,0.24-6.26-2.47-6.17-6.05c0.09-3.58,2.99-6.67,6.49-6.9l611.98-41.08c1.57-0.11,3.06,0.45,4.14,1.55l148.63,151.17
				c2.22,2.25,2.12,6.18-0.21,8.78C2591.71,2376.34,2590.21,2377.06,2588.72,2377.18z"/>
			<path class="st0" d="M2827.44,1526.11l-634.76,18.88c-1.62,0.05-3.15-0.58-4.26-1.73l-179.91-187.13
				c-1.14-1.18-1.75-2.8-1.71-4.5l7.47-308.19c0.04-1.71,0.73-3.34,1.93-4.54l151.56-153.16c2.45-2.47,6.31-2.45,8.64,0.05
				c2.32,2.5,2.23,6.53-0.22,9l-149.55,151.28l-7.33,302.67l176.22,183.48l629.88-18.3l73.7-79.73c2.26-2.44,5.82-2.53,7.96-0.2
				c2.14,2.33,2.05,6.2-0.21,8.64l-75.34,81.58C2830.41,1525.37,2828.95,1526.06,2827.44,1526.11z"/>
			<path class="st0" d="M2806.8,1440.79l-551.28,13.72c-3.34,0.08-5.98-2.68-5.9-6.19l12.89-532.19c0.08-3.5,2.86-6.32,6.2-6.31
				c3.34,0.02,5.97,2.86,5.89,6.36l-12.73,525.51l545.23-13.19c3.14-0.08,5.62,2.61,5.54,6
				C2812.55,1437.9,2809.94,1440.71,2806.8,1440.79z"/>
			<path class="st0" d="M2893.04,1383.66l-581.89,12.67c-3.32,0.07-5.94-2.69-5.86-6.18l10.71-442.17c0.08-3.49,2.84-6.31,6.16-6.3
				c3.32,0.01,5.94,2.84,5.85,6.33l-10.55,435.57l575.87-12.14c3.11-0.07,5.56,2.62,5.48,5.99
				C2898.74,1380.81,2896.15,1383.59,2893.04,1383.66z"/>
			<path class="st0" d="M2849.49,1317.23l-470.78,8.45c-3.3,0.06-5.9-2.71-5.82-6.19l8.39-346.17c0.08-3.48,2.82-6.29,6.12-6.28
				c3.3,0.01,5.89,2.82,5.81,6.3l-8.23,339.65l464.81-8.03c3.13-0.05,5.59,2.64,5.51,6.03S2852.62,1317.17,2849.49,1317.23z"/>
			<path class="st0" d="M3072.24,2484.76c-3.04,0.26-5.45-2.23-5.36-5.57l3.75-154.62l-73.88-77.43c-1.02-1.06-1.56-2.56-1.53-4.18
				l10.29-424.91c0.08-3.36,2.63-6.19,5.7-6.33c3.07-0.14,5.49,2.46,5.4,5.81l-10.23,422.13l73.8,77.43c1,1.05,1.55,2.54,1.51,4.15
				l-3.8,157.03C3077.81,2481.59,3075.28,2484.5,3072.24,2484.76z"/>
			<path class="st0" d="M1893.65,1379.59c-1.61,0.03-3.2-0.57-4.4-1.8l-152.89-157.8l-564.02,6.61c-3.75,0.04-6.72-2.92-6.63-6.63
				l4.39-181.27c0.09-3.71,3.2-6.72,6.95-6.72c3.75-0.01,6.71,2.99,6.62,6.7l-4.23,174.43l559.87-6.17c1.7-0.02,3.31,0.65,4.47,1.86
				l154.57,159.69c2.39,2.47,2.3,6.56-0.22,9.13C1896.88,1378.9,1895.26,1379.56,1893.65,1379.59z"/>
			<path class="st0" d="M1970.7,1300.86c-1.6,0.03-3.18-0.58-4.37-1.81l-151.62-157.82l-559.31,4.23c-3.72,0.03-6.66-2.94-6.57-6.64
				l3.72-153.76c0.09-3.7,3.17-6.68,6.89-6.68c3.72,0,6.66,2.99,6.57,6.69l-3.56,146.98l555.2-3.81c1.69-0.01,3.28,0.66,4.44,1.87
				l153.28,159.71c2.38,2.47,2.28,6.55-0.22,9.09C1973.9,1300.18,1972.29,1300.83,1970.7,1300.86z"/>
			<path class="st0" d="M1961.25,1132.61c-1.6,0.01-3.18-0.61-4.37-1.85l-64.45-67.65l-554.66,1.88c-3.69,0.01-6.6-2.96-6.51-6.63
				l2.1-86.55c0.09-3.68,3.15-6.65,6.83-6.65c3.69,0.01,6.6,2.99,6.51,6.67l-1.93,79.83l550.59-1.49c1.67,0,3.25,0.67,4.4,1.88
				l66.19,69.54c2.38,2.5,2.28,6.57-0.22,9.1C1964.46,1131.96,1962.85,1132.6,1961.25,1132.61z"/>
			<path class="st0" d="M2192.64,1421.14c-1.56,0.04-3.1-0.55-4.26-1.76l-122.57-128.34c-1.13-1.18-1.74-2.8-1.7-4.5l5.43-224.05
				c0.04-1.7,0.73-3.33,1.92-4.53l94.45-95.82c2.45-2.48,6.31-2.47,8.64,0.02c2.32,2.49,2.23,6.52-0.22,9l-92.51,93.94l-5.3,218.6
				l120.69,126.49c2.32,2.43,2.22,6.45-0.22,8.98C2195.77,1420.45,2194.2,1421.1,2192.64,1421.14z"/>
			<path class="st0" d="M1003.45,1418.04c-1.77,0.04-3.52-0.58-4.84-1.88c-2.63-2.59-2.53-6.87,0.23-9.57l126.5-123.66
				c1.31-1.28,3.06-2.02,4.87-2.04l530.45-7.69c3.56-0.05,6.38,2.83,6.29,6.45c-0.09,3.61-3.04,6.58-6.61,6.64l-527.64,8.01
				l-124.33,121.66C1007,1417.3,1005.22,1418,1003.45,1418.04z"/>
			<path class="st0" d="M1897.22,972.62l-490.71-0.72c-3.66,0-6.56-2.98-6.47-6.64c0.09-3.67,3.13-6.63,6.79-6.62l488.09,1.05
				l119.89-119.89c2.49-2.49,6.42-2.45,8.78,0.08c2.36,2.53,2.26,6.59-0.22,9.08l-121.66,121.78
				C1900.5,971.95,1898.89,972.62,1897.22,972.62z"/>
			<path class="st0" d="M2754.52,1245.02l-231.9,3.2c-1.56,0.02-3.04-0.62-4.11-1.77l-68.97-74.25c-1.08-1.17-1.67-2.75-1.63-4.42
				l3.64-150.46c0.08-3.46,2.8-6.27,6.07-6.27c3.27,0,5.85,2.8,5.76,6.26l-3.58,147.77l65.54,70.63l229.47-3.01
				c3.16-0.04,5.65,2.68,5.57,6.09C2760.3,1242.19,2757.68,1244.98,2754.52,1245.02z"/>
			<path class="st0" d="M1912.66,1372.76c-0.26,10.69-8.91,19.54-19.32,19.76c-10.43,0.22-18.68-8.29-18.42-19
				c0.26-10.71,8.93-19.56,19.36-19.76C1904.69,1353.56,1912.92,1362.06,1912.66,1372.76z"/>
			<path class="st0" d="M1977.4,1281.46c-0.26,10.66-8.85,19.43-19.19,19.6c-10.36,0.17-18.55-8.35-18.29-19.03
				c0.26-10.68,8.87-19.45,19.23-19.6C1969.49,1262.29,1977.66,1270.81,1977.4,1281.46z"/>
			<path class="st0" d="M1981.16,1126.04c-0.26,10.66-8.84,19.36-19.19,19.44c-10.35,0.08-18.55-8.51-18.29-19.18
				c0.26-10.68,8.87-19.38,19.22-19.44C1973.26,1106.79,1981.42,1115.38,1981.16,1126.04z"/>
			<path class="st0" d="M1676.62,1279.5c-0.26,10.83-9.13,19.74-19.81,19.91c-10.7,0.17-19.16-8.49-18.9-19.34
				c0.26-10.85,9.16-19.77,19.85-19.91C1668.44,1260.01,1676.88,1268.67,1676.62,1279.5z"/>
			<path class="st0" d="M1024.31,1410.83c-0.27,11.2-9.75,20.49-21.19,20.74c-11.45,0.25-20.52-8.64-20.25-19.87
				c0.27-11.22,9.78-20.51,21.23-20.74C1015.54,1390.73,1024.58,1399.63,1024.31,1410.83z"/>
			<path class="st0" d="M1197.23,1038.64c-0.27,11.11-9.58,20.14-20.82,20.18c-11.25,0.03-20.16-8.96-19.89-20.09
				c0.27-11.13,9.62-20.16,20.87-20.17C1188.62,1018.54,1197.49,1027.54,1197.23,1038.64z"/>
			<path class="st0" d="M1279.93,965.04c-0.27,11.06-9.51,20.02-20.65,20.01c-11.15-0.01-19.99-9-19.72-20.09
				c0.27-11.09,9.54-20.04,20.69-20.01C1271.39,944.99,1280.2,953.98,1279.93,965.04z"/>
			<path class="st0" d="M1360.18,965.19c-0.27,11.02-9.43,19.94-20.48,19.93c-11.06-0.01-19.82-8.96-19.56-20
				c0.27-11.04,9.46-19.96,20.52-19.93C1351.71,945.22,1360.44,954.17,1360.18,965.19z"/>
			<path class="st0" d="M1426.53,965.31c-0.27,10.98-9.37,19.87-20.34,19.86c-10.99-0.01-19.68-8.93-19.42-19.93
				c0.27-11,9.4-19.89,20.38-19.86C1418.13,945.41,1426.8,954.33,1426.53,965.31z"/>
			<path class="st0" d="M2037.71,844.54c-0.26,10.63-8.79,19.18-19.08,19.11c-10.3-0.08-18.44-8.77-18.18-19.42
				c0.26-10.65,8.82-19.2,19.12-19.11C2029.84,825.22,2037.96,833.91,2037.71,844.54z"/>
			<path class="st0" d="M1066.55,1086.15c-0.27,11.18-9.71,20.3-21.1,20.36c-11.4,0.06-20.44-8.97-20.17-20.18
				c0.27-11.21,9.74-20.32,21.15-20.36C1057.82,1065.93,1066.82,1074.96,1066.55,1086.15z"/>
			<path class="st0" d="M996.36,1140.64c-0.27,11.22-9.78,20.4-21.25,20.49c-11.49,0.09-20.58-8.95-20.31-20.19
				c0.27-11.25,9.81-20.42,21.3-20.49C987.56,1120.38,996.63,1129.41,996.36,1140.64z"/>
			<path class="st0" d="M926,1181.92c-0.27,11.26-9.85,20.49-21.4,20.61c-11.57,0.12-20.73-8.93-20.46-20.22
				c0.27-11.29,9.88-20.51,21.45-20.61C917.14,1161.6,926.27,1170.66,926,1181.92z"/>
			<path class="st0" d="M869.88,1482.19c-0.27,11.29-9.9,20.68-21.52,20.98c-11.63,0.3-20.84-8.63-20.57-19.95
				c0.27-11.31,9.93-20.71,21.56-20.98C860.96,1461.97,870.15,1470.9,869.88,1482.19z"/>
			<path class="st0" d="M868.23,1550.33c-0.27,11.29-9.9,20.72-21.52,21.05c-11.63,0.34-20.85-8.56-20.57-19.88
				c0.27-11.32,9.93-20.74,21.56-21.05C859.31,1530.15,868.5,1539.04,868.23,1550.33z"/>
			<path class="st0" d="M827.99,1619.69c-0.27,11.31-9.94,20.79-21.6,21.17c-11.68,0.38-20.93-8.5-20.66-19.84
				s9.97-20.82,21.65-21.17C819.05,1599.49,828.27,1608.38,827.99,1619.69z"/>
			<path class="st0" d="M826.34,1687.96c-0.27,11.31-9.94,20.82-21.6,21.24c-11.68,0.42-20.93-8.43-20.66-19.77
				s9.97-20.85,21.65-21.24C817.39,1667.8,826.61,1676.65,826.34,1687.96z"/>
			<path class="st0" d="M1970.86,1808.57c-0.26,10.65-8.85,19.66-19.19,20.12c-10.36,0.46-18.55-7.82-18.29-18.49
				s8.87-19.68,19.23-20.13C1962.95,1789.64,1971.12,1797.92,1970.86,1808.57z"/>
			<path class="st0" d="M1267.9,2015.83c-0.27,11.05-9.51,20.5-20.65,21.1c-11.15,0.6-19.99-7.89-19.72-18.97
				c0.27-11.08,9.54-20.52,20.69-21.1C1259.36,1996.28,1268.17,2004.77,1267.9,2015.83z"/>
			<path class="st0" d="M857.09,1720.94c11.6-0.42,20.78,8.38,20.5,19.66c-0.27,11.28-9.89,20.79-21.49,21.24
				c-11.62,0.45-20.82-8.35-20.55-19.66C835.83,1730.88,845.48,1721.37,857.09,1720.94z"/>
			<path class="st0" d="M926.91,1718.38c11.52-0.42,20.63,8.35,20.36,19.59c-0.27,11.24-9.82,20.72-21.34,21.16
				c-11.53,0.45-20.67-8.32-20.4-19.59C905.8,1728.28,915.38,1718.81,926.91,1718.38z"/>
			<path class="st0" d="M996.24,1715.84c11.44-0.42,20.48,8.32,20.21,19.52c-0.27,11.2-9.75,20.64-21.19,21.09
				c-11.45,0.44-20.53-8.3-20.25-19.52C975.27,1725.7,984.78,1716.26,996.24,1715.84z"/>
			<path class="st0" d="M1065.07,1713.31c11.36-0.41,20.34,8.3,20.07,19.46c-0.27,11.16-9.69,20.57-21.05,21.01
				c-11.37,0.44-20.38-8.27-20.11-19.46C1044.25,1723.14,1053.7,1713.73,1065.07,1713.31z"/>
			<path class="st0" d="M1046.12,2212.83c11.37-0.71,20.36,7.77,20.09,18.94c-0.27,11.17-9.7,20.81-21.07,21.54
				c-11.39,0.73-20.41-7.74-20.14-18.93C1025.27,2223.18,1034.73,2213.54,1046.12,2212.83z"/>
			<path class="st0" d="M1114.56,2208.56c11.29-0.7,20.22,7.75,19.95,18.88c-0.27,11.13-9.63,20.74-20.93,21.46
				c-11.31,0.73-20.26-7.72-19.99-18.87C1093.86,2218.88,1103.25,2209.27,1114.56,2208.56z"/>
			<path class="st0" d="M1182.52,2204.33c11.22-0.7,20.08,7.72,19.81,18.81c-0.27,11.09-9.57,20.66-20.78,21.39
				c-11.23,0.72-20.12-7.7-19.85-18.81C1161.97,2214.61,1171.3,2205.03,1182.52,2204.33z"/>
			<path class="st0" d="M1250.01,2200.13c11.13-0.69,19.94,7.7,19.67,18.75c-0.27,11.05-9.51,20.59-20.64,21.31
				c-11.15,0.72-19.98-7.68-19.71-18.75C1229.6,2210.36,1238.86,2200.82,1250.01,2200.13z"/>
			<path class="st0" d="M922.36,2193.42c11.52-0.7,20.62,7.84,20.35,19.08c-0.27,11.24-9.82,20.94-21.34,21.66
				c-11.54,0.73-20.67-7.81-20.4-19.08C901.24,2203.82,910.82,2194.12,922.36,2193.42z"/>
			<path class="st0" d="M852.21,2211.3c11.6-0.71,20.77,7.85,20.5,19.13c-0.27,11.28-9.89,21.02-21.49,21.76
				c-11.62,0.74-20.82-7.82-20.55-19.12C830.95,2221.75,840.6,2212.01,852.21,2211.3z"/>
			<path class="st0" d="M783.34,2229.19c11.68-0.73,20.92,7.86,20.65,19.18c-0.27,11.32-9.96,21.1-21.64,21.85
				c-11.7,0.75-20.97-7.83-20.69-19.17C761.93,2239.71,771.64,2229.92,783.34,2229.19z"/>
			<path class="st0" d="M2658.74,1877.52c9.57-0.47,17.12,7.45,16.87,17.7c-0.25,10.24-8.2,18.95-17.77,19.44
				c-9.58,0.49-17.16-7.43-16.91-17.7C2641.18,1886.69,2649.16,1877.99,2658.74,1877.52z"/>
			<path class="st0" d="M2716.35,1874.69c9.51-0.47,17.01,7.43,16.76,17.65c-0.25,10.21-8.15,18.89-17.66,19.37
				c-9.52,0.49-17.04-7.41-16.8-17.64C2698.9,1883.83,2706.83,1875.15,2716.35,1874.69z"/>
			<path class="st0" d="M2773.59,1871.87c9.45-0.46,16.9,7.41,16.65,17.59c-0.25,10.18-8.1,18.82-17.55,19.31
				c-9.46,0.48-16.93-7.39-16.69-17.59C2756.26,1880.98,2764.13,1872.34,2773.59,1871.87z"/>
			<path class="st0" d="M2830.46,1869.08c9.39-0.46,16.79,7.39,16.55,17.54c-0.25,10.15-8.05,18.76-17.44,19.25
				c-9.4,0.48-16.82-7.37-16.58-17.54C2813.24,1878.16,2821.07,1869.54,2830.46,1869.08z"/>
			<path class="st0" d="M2886.97,1866.3c9.33-0.46,16.69,7.37,16.44,17.49c-0.25,10.12-8,18.7-17.33,19.18
				c-9.34,0.48-16.72-7.35-16.47-17.48C2869.86,1875.35,2877.64,1866.76,2886.97,1866.3z"/>
			<path class="st0" d="M3011.51,1799.57c9.2-0.42,16.45,7.38,16.21,17.43c-0.24,10.04-7.89,18.54-17.09,18.98
				c-9.21,0.44-16.48-7.36-16.24-17.43C2994.63,1808.49,3002.3,1799.99,3011.51,1799.57z"/>
			<path class="st0" d="M3026.43,1641.39c9.18-0.34,16.43,7.53,16.18,17.57c-0.24,10.04-7.88,18.47-17.06,18.82
				c-9.19,0.36-16.46-7.51-16.21-17.57C3009.58,1650.15,3017.24,1641.73,3026.43,1641.39z"/>
			<path class="st0" d="M3011.24,1581.3c9.2-0.31,16.46,7.59,16.21,17.64c-0.24,10.05-7.89,18.45-17.09,18.78
				c-9.21,0.33-16.49-7.57-16.24-17.64C2994.36,1590.01,3002.03,1581.6,3011.24,1581.3z"/>
			<path class="st0" d="M3052.65,1700.92c9.16-0.37,16.37,7.46,16.13,17.48c-0.24,10.02-7.86,18.46-17.01,18.85
				c-9.17,0.39-16.41-7.44-16.16-17.48C3035.85,1709.73,3043.48,1701.29,3052.65,1700.92z"/>
			<path class="st0" d="M2979.32,1521.59c9.23-0.27,16.52,7.66,16.27,17.73c-0.24,10.07-7.92,18.46-17.16,18.76
				c-9.25,0.3-16.55-7.64-16.3-17.73C2962.37,1530.26,2970.07,1521.87,2979.32,1521.59z"/>
			<path class="st0" d="M2903.39,1420.83c9.32-0.22,16.66,7.79,16.42,17.91c-0.25,10.11-7.99,18.51-17.31,18.75
				c-9.33,0.24-16.7-7.78-16.45-17.9C2886.3,1429.45,2894.06,1421.06,2903.39,1420.83z"/>
			<path class="st0" d="M2807.39,1416.22c9.42-0.22,16.85,7.84,16.6,18.01c-0.25,10.17-8.07,18.6-17.49,18.85
				c-9.43,0.24-16.88-7.82-16.63-18.01C2790.11,1424.88,2797.97,1416.44,2807.39,1416.22z"/>
			<path class="st0" d="M2893.63,1359.21c9.33-0.19,16.68,7.86,16.44,17.98c-0.25,10.12-8,18.49-17.33,18.7
				c-9.34,0.21-16.72-7.84-16.47-17.98C2876.52,1367.77,2884.29,1359.4,2893.63,1359.21z"/>
			<path class="st0" d="M2843.72,1292.82c9.38-0.16,16.78,7.94,16.53,18.09c-0.25,10.15-8.04,18.52-17.42,18.69
				c-9.39,0.18-16.81-7.92-16.57-18.09S2834.32,1292.98,2843.72,1292.82z"/>
			<path class="st0" d="M2755.11,1220.37c9.48-0.12,16.95,8.06,16.71,18.25c-0.25,10.2-8.12,18.58-17.6,18.72
				c-9.49,0.14-16.98-8.03-16.74-18.26C2737.73,1228.87,2745.63,1220.49,2755.11,1220.37z"/>
			<path class="st0" d="M2457.93,998.51c9.8,0,17.53,8.41,17.28,18.78c-0.25,10.37-8.39,18.8-18.19,18.82
				c-9.81,0.02-17.57-8.39-17.32-18.78C2439.95,1006.94,2448.12,998.51,2457.93,998.51z"/>
			<path class="st0" d="M2387.7,954.47c9.88,0.03,17.67,8.49,17.42,18.9c-0.25,10.41-8.45,18.85-18.33,18.85
				c-9.89,0-17.71-8.47-17.45-18.9C2369.59,962.88,2377.82,954.44,2387.7,954.47z"/>
			<path class="st0" d="M2322.47,929.04c9.95,0.04,17.8,8.54,17.54,18.99c-0.25,10.45-8.52,18.91-18.46,18.89
				c-9.96-0.02-17.84-8.52-17.58-19C2304.23,937.46,2312.52,929,2322.47,929.04z"/>
			<path class="st0" d="M2269.01,897.16c10.01,0.06,17.9,8.6,17.65,19.08c-0.25,10.48-8.56,18.95-18.57,18.92
				c-10.02-0.04-17.94-8.58-17.69-19.09C2250.66,905.58,2259,897.11,2269.01,897.16z"/>
			<path class="st0" d="M2168.55,947.55c10.12,0.03,18.1,8.6,17.85,19.14c-0.26,10.54-8.66,19.08-18.77,19.07
				c-10.13-0.01-18.14-8.58-17.88-19.14C2149.99,956.06,2158.42,947.52,2168.55,947.55z"/>
			<path class="st0" d="M2170.4,871.13c10.11,0.07,18.1,8.67,17.84,19.21c-0.26,10.54-8.66,19.04-18.77,19
				c-10.13-0.05-18.14-8.65-17.88-19.21C2151.85,879.57,2160.27,871.06,2170.4,871.13z"/>
			<path class="st0" d="M2193.34,1392.54c10.08-0.22,18.04,8.14,17.79,18.66c-0.25,10.52-8.63,19.24-18.71,19.47
				c-10.1,0.24-18.08-8.11-17.83-18.65C2174.84,1401.48,2183.24,1392.76,2193.34,1392.54z"/>
			<path class="st0" d="M2595.49,2097.72c9.64-0.59,17.24,7.27,16.99,17.55c-0.25,10.28-8.25,19.1-17.89,19.72
				c-9.65,0.61-17.27-7.24-17.02-17.54C2577.81,2107.14,2585.84,2098.31,2595.49,2097.72z"/>
			<path class="st0" d="M2567.7,2043.52c9.67-0.56,17.29,7.33,17.04,17.63c-0.25,10.3-8.28,19.11-17.95,19.7
				c-9.68,0.58-17.33-7.31-17.08-17.62C2549.97,2052.91,2558.02,2044.08,2567.7,2043.52z"/>
			<path class="st0" d="M2539.82,1989.15c9.7-0.53,17.35,7.39,17.1,17.71c-0.25,10.31-8.3,19.12-18,19.67
				c-9.71,0.55-17.38-7.37-17.13-17.71C2522.03,1998.49,2530.11,1989.68,2539.82,1989.15z"/>
			<path class="st0" d="M2511.85,1934.6c9.73-0.51,17.4,7.46,17.15,17.79s-8.33,19.13-18.06,19.65
				c-9.74,0.53-17.44-7.44-17.19-17.79C2494.01,1943.9,2502.11,1935.1,2511.85,1934.6z"/>
			<path class="st0" d="M1832.87,2241.39c10.47-0.69,18.74,7.43,18.48,18.14c-0.26,10.71-8.95,19.98-19.42,20.7
				c-10.49,0.72-18.78-7.4-18.52-18.14S1822.39,2242.08,1832.87,2241.39z"/>
			<path class="st0" d="M2589.39,2349.23c9.64-0.73,17.24,7.02,17,17.3c-0.25,10.28-8.26,19.22-17.9,19.96
				c-9.65,0.75-17.28-7-17.03-17.3C2571.71,2358.9,2579.74,2349.96,2589.39,2349.23z"/>
			<path class="st0" d="M2591.08,2519.51c9.64-0.82,17.24,6.85,16.99,17.13c-0.25,10.28-8.25,19.28-17.89,20.12
				c-9.65,0.84-17.27-6.83-17.02-17.12C2573.4,2529.34,2581.43,2520.33,2591.08,2519.51z"/>
			<path class="st0" d="M1766.75,2180.92c10.55-0.67,18.88,7.51,18.62,18.27c-0.26,10.75-9.02,20.03-19.56,20.71
				c-10.56,0.69-18.92-7.49-18.66-18.27S1756.19,2181.58,1766.75,2180.92z"/>
			<path class="st0" d="M1715.65,2184.13c10.61-0.67,18.98,7.53,18.72,18.32c-0.26,10.78-9.06,20.08-19.67,20.77
				c-10.62,0.69-19.02-7.51-18.76-18.31C1696.21,2194.1,1705.03,2184.8,1715.65,2184.13z"/>
			<path class="st0" d="M1662.7,2252.69c10.66-0.71,19.09,7.48,18.83,18.3c-0.26,10.81-9.11,20.17-19.78,20.9
				c-10.68,0.73-19.13-7.46-18.87-18.29S1652.02,2253.4,1662.7,2252.69z"/>
			<path class="st0" d="M1437.65,2412.81c10.92-0.81,19.54,7.41,19.28,18.34c-0.27,10.94-9.32,20.48-20.24,21.31
				c-10.93,0.83-19.59-7.38-19.32-18.34C1417.64,2423.17,1426.72,2413.62,1437.65,2412.81z"/>
			<path class="st0" d="M1406.07,2355.67c10.96-0.78,19.61,7.48,19.35,18.43c-0.27,10.96-9.35,20.49-20.31,21.29
				c-10.97,0.8-19.65-7.45-19.39-18.43C1385.99,2365.99,1395.1,2356.45,1406.07,2355.67z"/>
			<path class="st0" d="M1374.38,2298.34c10.99-0.75,19.68,7.55,19.41,18.52c-0.27,10.98-9.38,20.5-20.38,21.27
				c-11,0.77-19.72-7.52-19.45-18.52C1354.23,2308.6,1363.38,2299.08,1374.38,2298.34z"/>
			<path class="st0" d="M1342.58,2240.8c11.03-0.71,19.75,7.62,19.48,18.62c-0.27,11-9.42,20.51-20.44,21.24
				c-11.04,0.74-19.79-7.6-19.52-18.62C1322.37,2251.02,1331.54,2241.51,1342.58,2240.8z"/>
			<path class="st0" d="M2613.97,2771.17c9.61-0.95,17.19,6.6,16.94,16.86c-0.25,10.26-8.23,19.36-17.84,20.33
				c-9.62,0.97-17.22-6.57-16.97-16.85C2596.34,2781.23,2604.35,2772.12,2613.97,2771.17z"/>
			<path class="st0" d="M2717.79,2760.9c9.5-0.94,16.99,6.57,16.74,16.77c-0.25,10.2-8.14,19.24-17.64,20.2
				c-9.51,0.96-17.02-6.54-16.77-16.76C2700.37,2770.89,2708.29,2761.84,2717.79,2760.9z"/>
			<path class="st0" d="M2820.43,2750.75c9.39-0.93,16.79,6.54,16.54,16.68c-0.25,10.14-8.05,19.13-17.44,20.08
				c-9.4,0.95-16.82-6.52-16.58-16.68C2803.2,2760.67,2811.03,2751.68,2820.43,2750.75z"/>
			<path class="st0" d="M2894.4,2719.09c9.31-0.91,16.65,6.54,16.41,16.64c-0.24,10.1-7.98,19.04-17.29,19.96
				c-9.32,0.93-16.68-6.52-16.44-16.64C2877.32,2728.93,2885.09,2719.99,2894.4,2719.09z"/>
			<path class="st0" d="M2951.47,2671.05c9.25-0.88,16.54,6.57,16.3,16.64c-0.24,10.07-7.93,18.96-17.18,19.86
				c-9.26,0.9-16.57-6.55-16.33-16.63C2934.5,2680.82,2942.21,2671.93,2951.47,2671.05z"/>
			<path class="st0" d="M3008.18,2623.31c9.19-0.85,16.44,6.59,16.2,16.63c-0.24,10.03-7.88,18.88-17.08,19.75
				c-9.2,0.87-16.47-6.57-16.22-16.63C2991.32,2633.01,2998.98,2624.16,3008.18,2623.31z"/>
			<path class="st0" d="M3048.41,2559.23c9.15-0.82,16.36,6.64,16.12,16.65c-0.24,10.01-7.85,18.81-17,19.64
				c-9.16,0.84-16.39-6.62-16.15-16.65C3031.62,2568.84,3039.25,2560.04,3048.41,2559.23z"/>
			<path class="st0" d="M3072.82,2460.59c9.13-0.76,16.32,6.72,16.08,16.72c-0.24,10-7.83,18.74-16.95,19.52
				c-9.14,0.78-16.35-6.7-16.11-16.72C3056.08,2470.1,3063.69,2461.36,3072.82,2460.59z"/>
			<path class="st0" d="M1863.41,1761.57l-670.83,27.39c-3.74,0.15-6.7-2.72-6.61-6.43c0.09-3.7,3.19-6.82,6.93-6.97l670.82-26.92
				c3.49-0.14,6.24,2.64,6.15,6.21C1869.79,1758.42,1866.9,1761.43,1863.41,1761.57z"/>
			<path class="st0" d="M1213.03,1781.44c-0.27,11.09-9.56,20.45-20.77,20.92c-11.22,0.46-20.11-8.17-19.84-19.28
				c0.27-11.11,9.59-20.48,20.81-20.92C1204.45,1761.72,1213.3,1770.35,1213.03,1781.44z"/>
			<path class="st0" d="M1882.48,1754.34c-0.26,10.7-8.93,19.73-19.37,20.17c-10.46,0.43-18.73-7.91-18.47-18.63
				c0.26-10.73,8.95-19.76,19.41-20.17C1874.49,1735.29,1882.74,1743.64,1882.48,1754.34z"/>
		</g>
	</g>
	<g>
		<linearGradient id="SVGID_1_" gradientUnits="userSpaceOnUse" x1="730.4379" y1="1895.526" x2="1234.7163" y2="1895.526">
			<stop  offset="0" style="stop-color:#FF9085"/>
			<stop  offset="1" style="stop-color:#FB6FBB"/>
		</linearGradient>
		<path class="st1" d="M730.44,808.56v2153.82c0,41.06,29.07,76.74,70.25,86.23l180.3,41.53c17.15,3.95,34.74,5.85,52.36,5.67
			c1.38-0.01,2.77-0.1,4.14-0.23l28-2.72l169.23-1809.88l-220.35-587.76l-204.21,25.43C764.58,726.34,730.44,763.98,730.44,808.56z"
			/>
		<linearGradient id="SVGID_2_" gradientUnits="userSpaceOnUse" x1="949.9874" y1="1895.2086" x2="2340.7214" y2="1895.2086">
			<stop  offset="0" style="stop-color:#FF9085"/>
			<stop  offset="1" style="stop-color:#FB6FBB"/>
		</linearGradient>
		<path class="st2" d="M949.99,772.43v2245.56c0,44.84,39.24,80.24,85.34,77L2266.9,2969.3c41.61-2.93,73.82-36.53,73.82-77V824.95
			c0-41.32-33.53-75.31-76.08-77.13L1033.06,695.3C987.78,693.37,949.99,728.46,949.99,772.43z"/>
		<g>
			<g>
				<linearGradient id="SVGID_3_" gradientUnits="userSpaceOnUse" x1="822.431" y1="1889.8464" x2="914.3144" y2="1889.8464">
					<stop  offset="0" style="stop-color:#311944"/>
					<stop  offset="1" style="stop-color:#893976"/>
				</linearGradient>
				<path class="st3" d="M856.58,2999.31V788.98c0-33.13,25.75-66.74,57.73-81.29l-36.59,4.56c-32.58,11.59-55.29,41.83-55.29,76.74
					v2210.32c0,23.82,10.61,45.62,27.86,60.73l51.95,11.97C874.74,3058.24,856.58,3030.49,856.58,2999.31z"/>
			</g>
		</g>
		<g>
			<linearGradient id="SVGID_4_" gradientUnits="userSpaceOnUse" x1="2111.7341" y1="1536.6415" x2="1496.3246" y2="1616.2208">
				<stop  offset="0" style="stop-color:#311944"/>
				<stop  offset="1" style="stop-color:#893976"/>
			</linearGradient>
			<path class="st4" d="M1139.57,968.14v1285.61c0,37.37,31.22,67.66,69.74,67.66l909.53-32.83c38.52,0,69.74-30.29,69.74-67.66
				V999.8c0-36.14-29.28-65.91-66.5-67.58l-909.53-31.66C1172.81,898.76,1139.57,929.54,1139.57,968.14z"/>
			<linearGradient id="SVGID_5_" gradientUnits="userSpaceOnUse" x1="975.0549" y1="2349.896" x2="2183.7761" y2="993.772">
				<stop  offset="0" style="stop-color:#311944"/>
				<stop  offset="1" style="stop-color:#893976"/>
			</linearGradient>
			<path class="st5" d="M2157.05,2220.92V999.8c0-36.14-29.28-65.91-66.5-67.58l-892.28-30.88c-33.11,5.11-58.7,32.94-58.7,66.81
				v1285.61c0,37.37,31.22,67.66,69.74,67.66l878-32.83C2125.83,2288.58,2157.05,2258.29,2157.05,2220.92z"/>
		</g>
		<linearGradient id="SVGID_6_" gradientUnits="userSpaceOnUse" x1="1717.0852" y1="781.7029" x2="1639.4146" y2="913.5079">
			<stop  offset="0" style="stop-color:#311944"/>
			<stop  offset="1" style="stop-color:#893976"/>
		</linearGradient>
		<ellipse class="st6" cx="1684.95" cy="836.23" rx="20.87" ry="32.83"/>
		<g>
			<path class="st7" d="M1966.56,1553.16l-558.66,9.29c-42.52,0.71-77.11,33.77-77.11,73.85v351.82c0,40.08,34.59,71.18,77.11,69.47
				l558.66-22.43c40.13-1.61,72.55-34.31,72.55-73.04v-340.02C2039.11,1583.35,2006.69,1552.49,1966.56,1553.16z"/>
			<path class="st7" d="M1958.48,1518.1c-16.92,0.25-30.66-12.81-30.66-29.17v-77c0-77.25-65.34-139.91-146.23-139.67l-181.99,0.53
				c-82.97,0.24-150.96,64.75-150.96,143.8v78.8c0,16.74-14.41,30.53-32.2,30.8c-17.83,0.27-32.3-13.13-32.3-29.93v-79.04
				c0-112.83,97.21-204.62,215.47-204.62h181.99c114.91,0,207.46,89.16,207.46,198.75v76.77
				C1989.05,1504.42,1975.37,1517.85,1958.48,1518.1z"/>
			<linearGradient id="SVGID_7_" gradientUnits="userSpaceOnUse" x1="1632.868" y1="1814.2854" x2="1777.6187" y2="1814.2854">
				<stop  offset="0" style="stop-color:#311944"/>
				<stop  offset="1" style="stop-color:#893976"/>
			</linearGradient>
			<path class="st8" d="M1777.62,1748.14c0-39.1-34.13-69.79-75.62-66.97c-36.69,2.49-67.04,31.88-69.02,66.96
				c-1.54,27.22,13.42,50.76,36.17,62.66c9.67,5.06,14.48,15.73,12.6,26.29l-15.95,89.51c-2.03,11.4,7.13,21.41,19.19,20.98
				l40.99-1.47c11.99-0.43,21.09-11.06,19.08-22.27l-15.94-88.68c-1.9-10.58,3.6-21.09,13.3-26.88
				C1763.5,1795.65,1777.62,1773.29,1777.62,1748.14z"/>
		</g>
		<g>
			<path class="st7" d="M1480.39,2615.85c-5.57,0.34-10.09-3.74-10.09-9.11v-25.27c0-25.35-21.44-44.76-47.87-43.26l-58.96,3.35
				c-26.65,1.51-48.39,23.54-48.39,49.09v25.47c0,5.41-4.59,10.08-10.26,10.43c-5.67,0.35-10.27-3.77-10.27-9.18v-25.5
				c0-36.4,30.98-67.74,68.93-69.86l58.96-3.29c37.58-2.1,68.04,25.52,68.04,61.56v25.25
				C1490.47,2610.88,1485.96,2615.51,1480.39,2615.85z"/>
			<path class="st7" d="M1483.06,2627.24l-180.95,11.13c-13.51,0.83-24.48,11.97-24.48,24.88v113.31
				c0,12.91,10.97,22.61,24.48,21.67l180.95-12.6c13.25-0.92,23.97-12.01,23.97-24.77v-112
				C1507.03,2636.11,1496.3,2626.43,1483.06,2627.24z M1404.97,2717.01c-3.15,2.01-4.93,5.5-4.32,8.92l5.17,28.74
				c0.65,3.64-2.3,7.2-6.19,7.46l-13.28,0.9c-3.9,0.27-6.86-2.9-6.2-6.63l5.16-29.31c0.61-3.46-0.95-6.87-4.07-8.41
				c-7.35-3.6-12.17-11.07-11.68-19.94c0.64-11.43,10.43-21.38,22.3-22.67c13.46-1.47,24.55,8.11,24.55,20.87
				C1416.41,2705.17,1411.82,2712.65,1404.97,2717.01z"/>
		</g>
		<g>
			<linearGradient id="SVGID_8_" gradientUnits="userSpaceOnUse" x1="1151.2646" y1="2664.9426" x2="1628.9292" y2="2664.9426">
				<stop  offset="0" style="stop-color:#FF9085"/>
				<stop  offset="1" style="stop-color:#FB6FBB"/>
			</linearGradient>
			<path class="st9" d="M1628.93,2649.86c0,124.98-104.93,234.14-235.93,243.94c-132.77,9.93-241.73-85.73-241.73-213.78
				s108.96-237.47,241.73-244.31C1524,2428.97,1628.93,2524.88,1628.93,2649.86z"/>
			<linearGradient id="SVGID_9_" gradientUnits="userSpaceOnUse" x1="1746.5997" y1="2628.2273" x2="2196.4473" y2="2628.2273">
				<stop  offset="0" style="stop-color:#FF9085"/>
				<stop  offset="1" style="stop-color:#FB6FBB"/>
			</linearGradient>
			<path class="st10" d="M2196.45,2614.02c0,121.33-98.87,227.08-222.27,236.31c-125.02,9.35-227.57-83.68-227.57-207.9
				c0-124.22,102.56-230.21,227.57-236.64C2097.58,2399.43,2196.45,2492.69,2196.45,2614.02z"/>
		</g>
		<g>
			<path class="st7" d="M2047.98,2580.96c-4.65-2.15-6.43-7.75-3.98-12.51l11.52-22.38c11.55-22.43,3.12-48.97-18.82-59.21
				l-48.92-22.83c-22.1-10.32-49.64-0.41-61.34,22.14l-11.68,22.5c-2.48,4.78-8.32,6.9-13.04,4.72c-4.72-2.18-6.53-7.83-4.04-12.62
				l11.7-22.51c16.68-32.09,55.88-46.16,87.32-31.45l48.88,22.87c31.17,14.59,43.14,52.32,26.74,84.2l-11.5,22.37
				C2058.37,2580.99,2052.63,2583.11,2047.98,2580.96z"/>
			<path class="st7" d="M2059,2591.81l-170.41,10.48c-12.72,0.78-23.05,11.57-23.05,24.09v109.95c0,12.52,10.33,21.96,23.05,21.07
				l170.41-11.86c12.48-0.87,22.58-11.61,22.58-23.99v-108.71C2081.59,2600.46,2071.48,2591.04,2059,2591.81z M1985.45,2678.79
				c-2.97,1.94-4.65,5.32-4.06,8.65l4.87,27.9c0.62,3.53-2.17,6.98-5.83,7.23l-12.51,0.85c-3.67,0.25-6.46-2.83-5.84-6.44
				l4.86-28.43c0.57-3.35-0.89-6.67-3.84-8.17c-6.92-3.51-11.46-10.77-11-19.37c0.6-11.09,9.83-20.72,21-21.96
				c12.67-1.4,23.12,7.91,23.12,20.3C1996.23,2667.32,1991.9,2674.57,1985.45,2678.79z"/>
		</g>
		<path class="st11" d="M2264.64,747.82l-1029.78-43.91c0.28,11.92,1.11,24.03,2.64,36.32c27.68,223.46,242.55,259.16,325.27,508.04
			c75.8,228.06-76.65,282.24,13.01,482.8c84.02,187.94,240.92,191.89,335.03,429.16c41.3,104.11,20.46,425.65,55.3,535.35
			c29.8,93.84,85.62,165.62,194.09,281.24l106.7-7.51c41.61-2.93,73.82-36.53,73.82-77V824.95
			C2340.72,783.63,2307.19,749.63,2264.64,747.82z"/>
	</g>
	<g>
		<linearGradient id="SVGID_10_" gradientUnits="userSpaceOnUse" x1="2250.5051" y1="2624.1604" x2="2255.7278" y2="2624.1604">
			<stop  offset="0" style="stop-color:#311944"/>
			<stop  offset="1" style="stop-color:#893976"/>
		</linearGradient>
		<path class="st12" d="M2253.12,3141.4c1.44,0,2.61-1.17,2.61-2.61V2109.54c0-1.44-1.17-2.61-2.61-2.61
			c-1.44,0-2.61,1.17-2.61,2.61v1029.25C2250.51,3140.23,2251.67,3141.4,2253.12,3141.4z"/>
		<linearGradient id="SVGID_11_" gradientUnits="userSpaceOnUse" x1="2527.7959" y1="2578.856" x2="2533.0188" y2="2578.856">
			<stop  offset="0" style="stop-color:#311944"/>
			<stop  offset="1" style="stop-color:#893976"/>
		</linearGradient>
		<path class="st13" d="M2530.41,3076.74c1.44,0,2.61-1.17,2.61-2.61v-990.55c0-1.44-1.17-2.61-2.61-2.61
			c-1.44,0-2.61,1.17-2.61,2.61v990.55C2527.8,3075.57,2528.97,3076.74,2530.41,3076.74z"/>
		<linearGradient id="SVGID_12_" gradientUnits="userSpaceOnUse" x1="2798.2087" y1="2609.5762" x2="3174.1021" y2="2609.5762">
			<stop  offset="0" style="stop-color:#311944"/>
			<stop  offset="1" style="stop-color:#893976"/>
		</linearGradient>
		<path class="st14" d="M3171.49,3122.87c0.3,0,0.6-0.05,0.89-0.16c1.36-0.49,2.05-1.99,1.56-3.35l-370.67-1021.36
			c-0.49-1.36-1.99-2.05-3.35-1.56c-1.36,0.49-2.05,1.99-1.56,3.35l370.67,1021.36C3169.42,3122.21,3170.42,3122.87,3171.49,3122.87
			z"/>
		<linearGradient id="SVGID_13_" gradientUnits="userSpaceOnUse" x1="2562.5596" y1="2661.759" x2="2900.4602" y2="2661.759">
			<stop  offset="0" style="stop-color:#311944"/>
			<stop  offset="1" style="stop-color:#893976"/>
		</linearGradient>
		<path class="st15" d="M2897.85,3202.79c0.26,0,0.52-0.04,0.77-0.12c1.38-0.43,2.15-1.89,1.72-3.27l-332.68-1076.84
			c-0.43-1.38-1.89-2.15-3.27-1.72c-1.38,0.43-2.15,1.89-1.72,3.27l332.68,1076.84C2895.7,3202.07,2896.73,3202.79,2897.85,3202.79z
			"/>
		<polygon class="st0" points="2527.36,2082.55 2249.19,2103.14 2249.19,2109.4 2567.09,2123.65 2804.7,2094.53 2804.7,2088.28 		
			"/>
		<linearGradient id="SVGID_14_" gradientUnits="userSpaceOnUse" x1="2249.1941" y1="2096.845" x2="2804.6997" y2="2096.845">
			<stop  offset="0" style="stop-color:#311944"/>
			<stop  offset="1" style="stop-color:#893976"/>
		</linearGradient>
		<polygon class="st16" points="2527.36,2076.3 2249.19,2103.14 2567.09,2117.39 2804.7,2088.28 		"/>
		<linearGradient id="SVGID_15_" gradientUnits="userSpaceOnUse" x1="2823.2649" y1="2932.4751" x2="3093.345" y2="2932.4751">
			<stop  offset="0" style="stop-color:#311944"/>
			<stop  offset="1" style="stop-color:#893976"/>
		</linearGradient>
		<path class="st17" d="M2825.87,2969.83c0.22,0,0.44-0.03,0.66-0.09l264.86-69.48c1.39-0.37,2.23-1.79,1.86-3.19
			c-0.37-1.4-1.8-2.23-3.19-1.86l-264.86,69.48c-1.4,0.37-2.23,1.79-1.86,3.19C2823.66,2969.05,2824.72,2969.83,2825.87,2969.83z"/>
		<linearGradient id="SVGID_16_" gradientUnits="userSpaceOnUse" x1="2748.2385" y1="2700.4475" x2="3013.3943" y2="2700.4475">
			<stop  offset="0" style="stop-color:#311944"/>
			<stop  offset="1" style="stop-color:#893976"/>
		</linearGradient>
		<path class="st18" d="M2750.85,2726.07c0.15,0,0.3-0.01,0.46-0.04l259.93-46.03c1.42-0.25,2.37-1.61,2.12-3.03
			c-0.25-1.42-1.61-2.36-3.03-2.12l-259.93,46.03c-1.42,0.25-2.37,1.61-2.12,3.03C2748.5,2725.18,2749.6,2726.07,2750.85,2726.07z"
			/>
		<linearGradient id="SVGID_17_" gradientUnits="userSpaceOnUse" x1="2670.2314" y1="2455.6477" x2="2927.0183" y2="2455.6477">
			<stop  offset="0" style="stop-color:#311944"/>
			<stop  offset="1" style="stop-color:#893976"/>
		</linearGradient>
		<path class="st19" d="M2672.84,2474.47c0.11,0,0.22-0.01,0.34-0.02l251.56-32.43c1.43-0.18,2.44-1.49,2.26-2.92
			c-0.19-1.43-1.5-2.44-2.92-2.26l-251.56,32.43c-1.43,0.18-2.44,1.49-2.26,2.92C2670.42,2473.51,2671.55,2474.47,2672.84,2474.47z"
			/>
		<linearGradient id="SVGID_18_" gradientUnits="userSpaceOnUse" x1="2620.2466" y1="2278.761" x2="2861.9915" y2="2278.761">
			<stop  offset="0" style="stop-color:#311944"/>
			<stop  offset="1" style="stop-color:#893976"/>
		</linearGradient>
		<path class="st20" d="M2622.85,2299.88c0.13,0,0.27-0.01,0.41-0.03l236.52-37.01c1.42-0.22,2.4-1.56,2.18-2.98
			c-0.22-1.42-1.57-2.4-2.98-2.18l-236.52,37.01c-1.42,0.22-2.4,1.56-2.18,2.98C2620.48,2298.96,2621.59,2299.88,2622.85,2299.88z"
			/>
	</g>
	<g>
		
			<linearGradient id="SVGID_19_" gradientUnits="userSpaceOnUse" x1="-2652.6572" y1="1939.6917" x2="-2635.0027" y2="2164.3857" gradientTransform="matrix(1 0 0 1 5019.6431 0)">
			<stop  offset="0" style="stop-color:#311944"/>
			<stop  offset="1" style="stop-color:#A03976"/>
		</linearGradient>
		<path class="st21" d="M2401.42,2051.75c0,0-71.07,32.3-72.23,37.45c-1.16,5.16,45.7-1.73,64.83-0.98
			c19.13,0.74,34.87-4.91,33.14-13.01c-1.73-8.1-8.43-28.49-8.43-28.49L2401.42,2051.75z"/>
		
			<linearGradient id="SVGID_20_" gradientUnits="userSpaceOnUse" x1="-2607.0803" y1="2064.7866" x2="-2610.29" y2="1832.0748" gradientTransform="matrix(1 0 0 1 5019.6431 0)">
			<stop  offset="0" style="stop-color:#FFC444"/>
			<stop  offset="0.9964" style="stop-color:#F36F56"/>
		</linearGradient>
		<path class="st22" d="M2398.82,2025.54l4.32,32c0,0,11.25,4,18.81-0.73l3.22-35.09L2398.82,2025.54z"/>
		
			<linearGradient id="SVGID_21_" gradientUnits="userSpaceOnUse" x1="-2319.0303" y1="1913.4823" x2="-2301.3762" y2="2138.1702" gradientTransform="matrix(1 0 0 1 5019.6431 0)">
			<stop  offset="0" style="stop-color:#311944"/>
			<stop  offset="1" style="stop-color:#A03976"/>
		</linearGradient>
		<path class="st23" d="M2733.49,2026.31l8.27,13.27c2.31,3.71,3,8.18,1.89,12.41c-2.89,11.03-8.66,32.54-11.18,38.15
			c-3.43,7.64-49.42,12.18-49.42,12.18s-4.1-5.77,5.45-12.74c9.55-6.97,15.69-8.07,19.06-18.35c3.37-10.28,5.62-39.38,5.62-39.38
			L2733.49,2026.31z"/>
		
			<linearGradient id="SVGID_22_" gradientUnits="userSpaceOnUse" x1="-2301.3267" y1="2060.5701" x2="-2304.5364" y2="1827.8502" gradientTransform="matrix(1 0 0 1 5019.6431 0)">
			<stop  offset="0" style="stop-color:#FFC444"/>
			<stop  offset="0.9964" style="stop-color:#F36F56"/>
		</linearGradient>
		<path class="st24" d="M2699.09,1992.58c3.02,2.41,17.79,47.24,17.79,47.24s4.78,6.11,13.86-2.91c9.08-9.02,4.11-4.05,4.11-4.05
			l-1.7-44.09L2699.09,1992.58z"/>
		
			<linearGradient id="SVGID_23_" gradientUnits="userSpaceOnUse" x1="-2662.6184" y1="1687.7957" x2="-2490.5557" y2="1687.7957" gradientTransform="matrix(1 0 0 1 5019.6431 0)">
			<stop  offset="0" style="stop-color:#444B8C"/>
			<stop  offset="0.9964" style="stop-color:#3E4177"/>
		</linearGradient>
		<path class="st25" d="M2359.72,1382.71c-3.75,95.44-3.9,199.14,1.59,309.92c6.18,124.75,18.61,240.04,34.27,344.56
			c5.82,0.19,11.94,0.22,18.33,0.04c4.32-0.12,8.5-0.33,12.54-0.61c8.13-21.67,17.73-50.17,26.33-84.21
			c9.04-35.8,14.5-67.9,18.39-98.61c13.69-108.11-2.35-117.54,8.75-197.65c9.84-70.95,23.82-73.73,40.25-174.47
			c17.82-109.31,4.55-125.7-1.9-131.63C2490.8,1324.83,2426.3,1342,2359.72,1382.71z"/>
		
			<linearGradient id="SVGID_24_" gradientUnits="userSpaceOnUse" x1="-2662.6189" y1="1687.8031" x2="-2490.5566" y2="1687.8031" gradientTransform="matrix(1 0 0 1 5019.6431 0)">
			<stop  offset="0" style="stop-color:#444B8C"/>
			<stop  offset="0.9964" style="stop-color:#3E4177"/>
		</linearGradient>
		<path class="st26" d="M2518.26,1350.05c-26.19-24.06-86.08-9.49-149.34,27.22c72.77,78.62,80.71,129.63,71.98,162.72
			c-9.86,37.4-39.84,48.18-39.72,89.07c0.14,50.26,45.5,63.57,44.54,116.76c-0.64,35.17-20.57,34.8-25.28,78.24
			c-5.57,51.39,20.47,69.1,12.04,107.13c-3.63,16.36-13.98,37.73-43.48,59.76c2.13,15.62,4.31,31.07,6.58,46.24
			c5.82,0.18,11.94,0.22,18.33,0.04c4.32-0.12,8.5-0.33,12.54-0.61c8.13-21.67,17.73-50.17,26.33-84.21
			c9.04-35.8,14.5-67.9,18.39-98.61c13.68-108.1-2.35-117.54,8.75-197.65c9.84-70.95,23.82-73.73,40.24-174.47
			C2537.97,1372.37,2524.71,1355.97,2518.26,1350.05z"/>
		
			<linearGradient id="SVGID_25_" gradientUnits="userSpaceOnUse" x1="-2614.8503" y1="1670.8352" x2="-2268.47" y2="1670.8352" gradientTransform="matrix(1 0 0 1 5019.6431 0)">
			<stop  offset="0" style="stop-color:#444B8C"/>
			<stop  offset="0.9964" style="stop-color:#3E4177"/>
		</linearGradient>
		<path class="st27" d="M2404.79,1381.1c62.66,91.68,130.24,205.79,190.68,342.37c45.68,103.21,78.8,200.12,103.12,286.48
			c3.29,1.52,11.05,4.56,20.98,3.25c13.53-1.79,21.64-10.43,23.76-12.84c9.9-61.91,8.81-114.35,5.45-152.19
			c-2.15-24.23-5.96-64.58-21.4-114.39c-17.3-55.8-29.19-58.93-51.76-117.96c-23.42-61.27-17.75-76.56-40.18-153.24
			c-9.22-31.5-24.64-78.37-50.1-134.44C2525.16,1345.8,2464.98,1363.45,2404.79,1381.1z"/>
		
			<linearGradient id="SVGID_26_" gradientUnits="userSpaceOnUse" x1="4051.5896" y1="1656.8042" x2="4179.1816" y2="934.5853" gradientTransform="matrix(-1 0 0 1 6480.5786 0)">
			<stop  offset="0" style="stop-color:#AA80F9"/>
			<stop  offset="0.9964" style="stop-color:#6165D7"/>
		</linearGradient>
		<path class="st28" d="M2115.5,1497.46c12.05,18.74,53.52,16.55,81.85,6.42c66.23-23.68,108.62-107.91,112.35-174.94
			c0.8-14.39,0.29-28.46,3.21-28.89c7.34-1.08,26.18,85.94,40.97,159.71c11.89,4.35,29.92,8.97,50.51,5.6
			c33.71-5.52,37.73-26.47,75.43-40.12c22-7.97,43.55-7.99,86.67-8.02c48.67-0.04,50.01,5.96,59.38,1.61c0,0,2.32-1.27,4.31-2.7
			c34.66-24.88-64.49-214-35.94-388.49c3.17-19.39,8.04-39.31-2.79-58.72c-27.99-50.17-138.62-57.24-207.16-24.23
			c-18.79,9.05-50.25,28.85-78.35,49.71c-11.23,8.34-22.91,17.67-35.09,28.32c-29.55,25.81-50.12,43.78-67.07,68.71
			c-68.34,100.56,10.64,184.36-51.36,312.96C2131.1,1448.59,2102.88,1477.84,2115.5,1497.46z"/>
		
			<linearGradient id="SVGID_27_" gradientUnits="userSpaceOnUse" x1="-2673.7974" y1="1055.5039" x2="-2673.7974" y2="916.4764" gradientTransform="matrix(1 0 0 1 5019.6431 0)">
			<stop  offset="0" style="stop-color:#FFC444"/>
			<stop  offset="0.9964" style="stop-color:#F36F56"/>
		</linearGradient>
		<path class="st29" d="M2299.26,926.55c0,0,17.79,20.2,36.92,30.67c17.28,9.46,55.38-6.48,64.2-8.35
			c8.81-1.87-1.76,21.86-18.39,38.22c-16.63,16.36-71.6,53.77-86.43,54.4c-14.83,0.63,2.39-12.36,11.49-27.48
			c9.1-15.12-3.73-46.38-15.22-56.01C2280.34,948.39,2299.26,926.55,2299.26,926.55z"/>
		
			<linearGradient id="SVGID_28_" gradientUnits="userSpaceOnUse" x1="-1363.1586" y1="2066.3772" x2="-1300.4877" y2="2066.3772" gradientTransform="matrix(0.9988 0.0509 -0.0509 0.9988 3618.8218 -451.0007)">
			<stop  offset="0" style="stop-color:#FFC444"/>
			<stop  offset="0.9964" style="stop-color:#F36F56"/>
		</linearGradient>
		<path class="st30" d="M2215.71,1527.13c0,0-26.16,10.89-44.36,12.53c-18.2,1.63-22.86,15.87-18.12,21.43
			c4.74,5.56,33.8,1.22,43.69-3.7C2206.82,1552.47,2215.71,1527.13,2215.71,1527.13z"/>
		<g>
			
				<linearGradient id="SVGID_29_" gradientUnits="userSpaceOnUse" x1="-3848.5488" y1="-1193.4525" x2="-3907.5874" y2="-1343.3998" gradientTransform="matrix(0.8789 -0.477 0.477 0.8789 6319.7207 210.4266)">
				<stop  offset="0" style="stop-color:#444B8C"/>
				<stop  offset="0.9964" style="stop-color:#3E4177"/>
			</linearGradient>
			<path class="st31" d="M2258.38,942.36c-20.19-1.53-40.59-26.4-36.47-37.25c1.18-3.1,3.8-3.59,43.33-10.11
				c19.63-3.23,29.44-4.57,36.22,0.86c4.14,3.31,7.37,9.21,8.39,14.79c0.52,2.87,0.55,6.82,0.06,14.69
				c-0.44,6.99-0.31,6.68-0.49,8.74c-0.44,4.96-1.79,13.68-6.62,25.76c-2.01-2.21-4.68-4.84-8.04-7.44c-1.29-1-6.42-4.87-12.24-7.22
				C2272.49,941.15,2264.93,942.86,2258.38,942.36z"/>
			
				<linearGradient id="SVGID_30_" gradientUnits="userSpaceOnUse" x1="-2772.0706" y1="1015.437" x2="-2707.071" y2="889.0485" gradientTransform="matrix(1 0 0 1 5019.6431 0)">
				<stop  offset="0" style="stop-color:#FFC444"/>
				<stop  offset="0.9964" style="stop-color:#F36F56"/>
			</linearGradient>
			<path class="st32" d="M2310.18,946.38c0,0-0.9,19.32-19.1,27.8c-16.3,7.59-37.93-26.44-31.98-39.43
				c1.98-4.34,8.13-9.05,14.43-10.51c3.72-0.86,5.55-0.12,11.6-1.65c5.58-1.41,6.67-2.71,8.82-2.27c2.7,0.54,6.13,3.61,8.7,15.62
				c1.34-4.69,4.3-7.83,7.52-8.02c0.51-0.03,2,0.11,3.21,0.89C2317.79,931.63,2316.93,938.8,2310.18,946.38z"/>
		</g>
		
			<linearGradient id="SVGID_31_" gradientUnits="userSpaceOnUse" x1="3753.7034" y1="1604.1781" x2="3881.2957" y2="881.9596" gradientTransform="matrix(-1 0 0 1 6480.5786 0)">
			<stop  offset="0" style="stop-color:#AA80F9"/>
			<stop  offset="0.9964" style="stop-color:#6165D7"/>
		</linearGradient>
		<path class="st33" d="M2745.7,1336.24c27.29-13.38,86.21-47.63,104.32-110.74c30.16-105.06-77.1-205.27-132.47-242.76
			c-63.49-42.99-127.28-49.93-166.05-54.15c-48.1-5.23-77.46-8.43-99.51,9.63c-57.02,46.7-22.75,200.8,33.7,216.67
			c18.48,5.19,25.47-8.33,64.2-17.66c12.61-3.04,106.73-25.71,155.68,24.07c34.26,34.84,38.63,97.3,14.44,155.68
			C2728.58,1323.4,2737.14,1329.82,2745.7,1336.24z"/>
		<g>
			
				<linearGradient id="SVGID_32_" gradientUnits="userSpaceOnUse" x1="5466.2539" y1="262.1139" x2="6267.27" y2="2140.8604" gradientTransform="matrix(-0.8966 0.4429 0.4429 0.8966 6956.2656 -1722.7372)">
				<stop  offset="0" style="stop-color:#AB316D"/>
				<stop  offset="1" style="stop-color:#792D3D"/>
			</linearGradient>
			<path class="st34" d="M1711.77,1694.44l88.47,26.33c5.48,1.63,11.42,1.13,16.71-1.42l44.86-21.66l-10.27-23.81l38.68-18.74
				l-8.79,20.2l19.08,3.66l36.35-17.55l-9.49-21.99l47.4-22.96l9.51,22.05l17.73-8.56l-4.9-11.36l40-19.34l-14.18,7.72l19.08,3.66
				l31.23-15.08l-10.38-24.07l22.36-10.83l-8.69,20.44l19.08,3.66l19.43-9.38l-10.41-24.12l38.95-18.87l-8.66,20.52l19.08,3.66
				l78.7-38.01c50.72,57.86,125.87,88.76,204.31,84.8c0.07,0,0.13-0.01,0.2-0.01c2.02-0.1,4.05-0.23,6.08-0.38
				c0.2-0.01,0.4-0.03,0.6-0.04c2.06-0.16,4.13-0.34,6.19-0.54c0.04,0,0.07-0.01,0.11-0.01c4.28-0.43,8.56-0.96,12.85-1.6
				c0.27-0.04,0.55-0.09,0.82-0.13c1.77-0.27,3.55-0.56,5.32-0.86c0.46-0.08,0.92-0.16,1.38-0.24c1.67-0.3,3.33-0.61,5-0.94
				c0.42-0.08,0.85-0.16,1.27-0.25c4.15-0.84,8.3-1.77,12.44-2.81c0.38-0.1,0.77-0.2,1.15-0.3c1.64-0.42,3.28-0.85,4.91-1.3
				c0.61-0.17,1.21-0.34,1.82-0.51c1.45-0.41,2.9-0.83,4.35-1.27c0.63-0.19,1.25-0.37,1.88-0.57c1.57-0.48,3.14-0.98,4.7-1.49
				c0.46-0.15,0.91-0.29,1.37-0.44c2.02-0.67,4.04-1.37,6.06-2.09c0.35-0.13,0.71-0.26,1.06-0.39c1.64-0.6,3.29-1.21,4.93-1.83
				c0.66-0.25,1.32-0.51,1.97-0.77c1.36-0.53,2.71-1.07,4.06-1.63c0.71-0.29,1.41-0.58,2.12-0.88c1.38-0.58,2.75-1.17,4.13-1.77
				c0.62-0.27,1.25-0.54,1.87-0.82c1.98-0.88,3.95-1.78,5.92-2.71c138.87-65.63,205.13-230.18,146.24-366.71
				c-58.89-136.53-219.43-190.56-356.84-121.55c-1.95,0.98-3.88,1.98-5.79,3c-0.6,0.32-1.2,0.65-1.8,0.97
				c-1.32,0.71-2.64,1.44-3.95,2.17c-0.67,0.38-1.34,0.76-2.01,1.14c-1.28,0.73-2.54,1.46-3.8,2.21c-0.62,0.36-1.23,0.72-1.85,1.09
				c-1.52,0.91-3.02,1.83-4.52,2.77c-0.32,0.2-0.65,0.4-0.97,0.6c-1.83,1.15-3.65,2.33-5.44,3.52c-0.41,0.27-0.81,0.54-1.21,0.82
				c-1.39,0.93-2.77,1.86-4.13,2.81c-0.55,0.38-1.09,0.76-1.64,1.15c-1.25,0.88-2.5,1.77-3.73,2.67c-0.52,0.38-1.04,0.76-1.56,1.14
				c-1.38,1.02-2.75,2.05-4.11,3.09c-0.33,0.25-0.66,0.5-0.99,0.75c-3.44,2.66-6.81,5.39-10.11,8.18c-0.35,0.29-0.69,0.59-1.03,0.88
				c-1.31,1.12-2.62,2.25-3.91,3.4c-0.36,0.32-0.73,0.64-1.09,0.97c-1.36,1.22-2.72,2.45-4.05,3.69c-0.22,0.2-0.44,0.41-0.66,0.61
				c-3.24,3.03-6.41,6.12-9.5,9.28c-0.04,0.04-0.08,0.08-0.12,0.12c-1.48,1.51-2.94,3.04-4.38,4.59c-0.15,0.16-0.31,0.33-0.46,0.49
				c-1.42,1.52-2.81,3.05-4.19,4.6c-0.06,0.07-0.12,0.13-0.18,0.2c-54.01,60.59-81.02,141.27-72.88,219.87l-454.07,223.28
				c-7.36,3.62-12.56,10.83-13.77,19.1l-7.38,50.53c-0.13,0.87-0.19,1.73-0.23,2.59c-0.01,0.24-0.01,0.48-0.01,0.72
				c-0.01,0.65,0.01,1.29,0.05,1.93c0.01,0.22,0.03,0.44,0.05,0.65c0.07,0.81,0.18,1.61,0.33,2.39c0,0.01,0,0.03,0.01,0.04
				C1697.51,1684.95,1703.43,1691.96,1711.77,1694.44z M2569.8,1327.75c-28.08,13.6-60.37,2.4-72.18-24.99
				c-11.81-27.39,1.27-60.7,29.3-74.44c28.1-13.78,60.57-2.67,72.44,24.86C2611.23,1280.71,2597.96,1314.11,2569.8,1327.75z"/>
			<g>
				
					<linearGradient id="SVGID_33_" gradientUnits="userSpaceOnUse" x1="5649.5322" y1="435.2696" x2="5276.8018" y2="1273.9128" gradientTransform="matrix(-0.9107 0.4131 0.4131 0.9107 6762.8716 -1375.1909)">
					<stop  offset="0" style="stop-color:#FFC444"/>
					<stop  offset="0.9964" style="stop-color:#F36F56"/>
				</linearGradient>
				<path class="st35" d="M2356.67,1445.82l-221.74,107.09l-10.43-24.17l-38.95,18.87l10.41,24.13l-19.43,9.38l-10.4-24.1
					l-22.36,10.83l10.38,24.07l-31.23,15.08l-4.91-11.38l-40,19.34l4.9,11.36l-17.73,8.56l-9.51-22.05l-47.4,22.96l9.49,21.99
					l-36.35,17.55l-10.29-23.86l-38.68,18.74l10.27,23.81l-44.86,21.66c-5.28,2.55-11.22,3.06-16.71,1.42l-88.47-26.33
					c-10.98-3.27-17.79-14.39-16.06-26.24l7.38-50.53c1.21-8.27,6.4-15.48,13.77-19.1l550.83-270.86L2356.67,1445.82z"/>
				
					<linearGradient id="SVGID_34_" gradientUnits="userSpaceOnUse" x1="5599.0649" y1="317.3702" x2="5226.3994" y2="1155.868" gradientTransform="matrix(-0.8966 0.4429 0.4429 0.8966 6956.2656 -1722.7372)">
					<stop  offset="0" style="stop-color:#FFC444"/>
					<stop  offset="0.9964" style="stop-color:#F36F56"/>
				</linearGradient>
				<path class="st36" d="M2311.91,1084.87c-135.53,68.07-197.49,230.52-140.05,363.69c57.44,133.17,213.68,189.29,350.65,124.56
					c138.87-65.63,205.13-230.18,146.24-366.71C2609.86,1069.88,2449.32,1015.86,2311.91,1084.87z M2507.83,1224.67
					c28.1-13.78,60.57-2.67,72.44,24.86c11.87,27.52-1.39,60.92-29.55,74.56c-28.08,13.6-60.37,2.4-72.18-24.99
					C2466.72,1271.72,2479.81,1238.41,2507.83,1224.67z"/>
				
					<linearGradient id="SVGID_35_" gradientUnits="userSpaceOnUse" x1="5517.9404" y1="335.2576" x2="6121.3242" y2="1750.4657" gradientTransform="matrix(-0.8966 0.4429 0.4429 0.8966 6956.2656 -1722.7372)">
					<stop  offset="0" style="stop-color:#FFC444"/>
					<stop  offset="0.9964" style="stop-color:#F36F56"/>
				</linearGradient>
				<path class="st37" d="M2151.83,1371.63l-454.07,223.28c-7.36,3.62-12.56,10.83-13.77,19.1l-7.38,50.53
					c-1.11,7.61,1.33,14.89,6.11,20.01c58-5.31,96.09-24.56,121.77-44.46c29.02-22.48,37.16-41.82,75.75-61.94
					c55.41-28.89,73.7-7.42,136.77-30.67c75.68-27.9,96.25-75.93,132.47-66.21c12.91,3.46,27.99,14.38,40.48,45.06l23.66-11.43
					c73.23,83.55,197.41,110.91,308.88,58.22c138.87-65.63,205.13-230.18,146.24-366.71c-58.89-136.53-219.43-190.56-356.84-121.55
					C2201.61,1140.26,2140.07,1258.12,2151.83,1371.63z M2550.71,1324.09c-28.08,13.6-60.37,2.4-72.18-24.99
					c-11.81-27.39,1.27-60.7,29.3-74.44c28.1-13.78,60.57-2.67,72.44,24.86C2592.14,1277.06,2578.88,1310.46,2550.71,1324.09z"/>
				
					<linearGradient id="SVGID_36_" gradientUnits="userSpaceOnUse" x1="5294.7397" y1="434.858" x2="5853.1724" y2="1744.6364" gradientTransform="matrix(-0.8966 0.4429 0.4429 0.8966 6956.2656 -1722.7372)">
					<stop  offset="0" style="stop-color:#FFC444"/>
					<stop  offset="0.9964" style="stop-color:#F36F56"/>
				</linearGradient>
				<path class="st38" d="M2332.58,1132.78c-109.2,54.52-159.32,185.25-113.04,292.55c46.28,107.29,172.18,152.24,282.31,99.88
					c111.35-52.94,164.25-185.03,117.04-294.5C2571.67,1121.25,2442.99,1077.65,2332.58,1132.78z M2507.83,1224.67
					c28.1-13.78,60.57-2.67,72.44,24.86c11.87,27.52-1.39,60.92-29.55,74.56c-28.08,13.6-60.37,2.4-72.18-24.99
					C2466.72,1271.72,2479.81,1238.41,2507.83,1224.67z"/>
			</g>
		</g>
		
			<linearGradient id="SVGID_37_" gradientUnits="userSpaceOnUse" x1="3759.1807" y1="1399.7987" x2="3773.0542" y2="1321.2706" gradientTransform="matrix(-1 0 0 1 6480.5786 0)">
			<stop  offset="0" style="stop-color:#FFC444"/>
			<stop  offset="0.9964" style="stop-color:#F36F56"/>
		</linearGradient>
		<path class="st39" d="M2740.19,1332.11l-14.45-10.84c0,0-9.06,6.28-20.14,5.42c-6.04-0.47-14.05,3.16-15.86,5.08
			c-1.81,1.92-10.22,6.53,1.82,5.32c12.04-1.2,13.98,2.15,12.3,8.17c-1.68,6.02-11.73,22.87-16.84,26.48
			c-5.11,3.61,9.54,6.02,15.56,3.81c6.02-2.21,15.65-6.22,22.67-19.26C2727.82,1351.54,2740.19,1332.11,2740.19,1332.11z"/>
	</g>
	<g>
		<linearGradient id="SVGID_38_" gradientUnits="userSpaceOnUse" x1="636.9073" y1="900.4816" x2="1383.7794" y2="900.4816">
			<stop  offset="0" style="stop-color:#311944"/>
			<stop  offset="1" style="stop-color:#893976"/>
		</linearGradient>
		<path class="st40" d="M1320.29,994.11c32.01,2.7,60.33-23.22,63.25-57.88c2.92-34.66-20.67-64.95-52.68-67.64
			c-1.66-0.14-3.3-0.16-4.94-0.15c-1.53-17.9-4.32-35.44-8.34-52.48c1.52-0.62,3.04-1.27,4.53-2.04
			c29.18-15,41.91-52.58,28.44-83.95c-13.48-31.37-48.06-44.64-77.24-29.64c-1.53,0.79-2.98,1.67-4.41,2.57
			c-9.53-14.39-20.08-27.94-31.56-40.53c1.06-1.38,2.1-2.79,3.07-4.28c18.53-28.67,12.27-67.85-13.99-87.52
			c-26.26-19.67-62.58-12.37-81.11,16.3c-0.95,1.47-1.79,2.98-2.61,4.5c-14.83-7.16-30.3-13.08-46.33-17.72
			c0.28-1.75,0.55-3.5,0.7-5.3c2.92-34.66,9.24-73.8-22.81-75.99c-74.14-5.08-90.19,31.56-93.11,66.23c-0.15,1.8-0.19,3.57-0.2,5.34
			c-16.58,1.89-32.83,5.14-48.64,9.72c-0.55-1.64-1.13-3.27-1.82-4.87c-13.48-31.37-11.04-52.29-41.68-40.54
			c-66.8,25.63-77.48,63.48-64,94.84c0.7,1.64,1.5,3.2,2.31,4.74c-13.43,10.5-26.1,22.09-37.9,34.68c-1.26-1.13-2.55-2.24-3.92-3.27
			c-26.26-19.67-62.58-12.37-81.11,16.3c-18.54,28.67-12.27,67.85,14,87.52c1.34,1.01,2.73,1.9,4.13,2.77
			c-6.81,16.13-12.5,32.95-17,50.35c-1.61-0.28-3.23-0.54-4.89-0.68c-32.01-2.7-60.33,23.22-63.25,57.88
			c-2.92,34.66,20.66,64.95,52.68,67.64c1.66,0.14,3.3,0.16,4.94,0.15c1.53,17.9,4.32,35.44,8.34,52.48
			c-1.52,0.62-3.04,1.27-4.53,2.03c-29.18,15-41.91,52.58-28.44,83.95c13.48,31.37,48.06,44.64,77.24,29.64
			c1.53-0.78,2.98-1.66,4.41-2.57c9.53,14.39,20.08,27.94,31.56,40.53c-1.06,1.38-2.1,2.79-3.07,4.28
			c-18.53,28.67-12.27,67.85,13.99,87.52c26.26,19.67,83.12,10.67,101.65-18c0.95-1.47-18.75-1.28-17.93-2.8
			c14.83,7.16,30.3,13.08,46.33,17.72c-0.28,1.75-0.54,3.5-0.7,5.3c-2.92,34.66,20.67,64.95,52.68,67.64
			c32.01,2.7,60.33-23.22,63.25-57.88c0.15-1.79,0.19-3.57,0.2-5.34c16.58-1.89,32.83-5.14,48.64-9.72
			c0.55,1.64,1.13,3.27,1.82,4.87c13.48,31.37,48.06,44.64,77.24,29.64c29.18-15,41.91-52.58,28.44-83.95
			c-0.71-1.64-1.5-3.2-2.32-4.74c13.43-10.5,26.1-22.09,37.9-34.68c1.26,1.13,2.55,2.24,3.92,3.27
			c26.26,19.67,62.58,12.37,81.11-16.3c18.53-28.67,12.27-67.85-13.99-87.52c-1.35-1.01-2.73-1.9-4.13-2.76
			c6.81-16.13,12.5-32.95,17-50.35C1317.01,993.71,1318.63,993.97,1320.29,994.11z M991.15,1132.67
			c-116.23-9.79-201.86-119.75-191.26-245.6c10.6-125.85,113.41-219.94,229.64-210.15c116.23,9.79,201.86,119.75,191.26,245.6
			C1210.19,1048.37,1107.38,1142.46,991.15,1132.67z"/>
		<linearGradient id="SVGID_39_" gradientUnits="userSpaceOnUse" x1="1061.0992" y1="898.5641" x2="1383.7787" y2="898.5641">
			<stop  offset="0" style="stop-color:#311944"/>
			<stop  offset="1" style="stop-color:#893976"/>
		</linearGradient>
		<path class="st41" d="M1322.12,813.92c29.18-15,41.91-52.58,28.44-83.95c-13.48-31.37-48.06-44.64-77.24-29.64
			c-1.53,0.78-2.98,1.66-4.41,2.57c-9.53-14.39-20.08-27.94-31.56-40.53c1.06-1.38,2.1-2.79,3.07-4.28
			c18.53-28.67,32.77-85.54,4.63-102.41c-53.41-32.01-81.21,2.52-99.74,31.19c-0.95,1.47-1.79,2.98-2.61,4.5
			c-14.83-7.16-30.3-13.08-46.33-17.71c0.28-1.75,0.55-3.5,0.7-5.3c1.59-18.87-4.71-36.39-15.91-48.92
			c-7.13,54.2-13.86,108.45-20.04,162.76c99.75,25.11,169.31,126.18,159.69,240.33c-8.15,96.74-70.8,174.64-152.12,201.09
			c0.19,10.57,0.46,21.17,0.36,31.76c-0.27,28.73-2.13,57.52-4.02,86.29c7.89-1.59,15.69-3.5,23.39-5.72
			c0.55,1.64,1.13,3.27,1.82,4.87c13.48,31.37,43.59,50.44,97.28,25.24c29.7-13.94,21.87-48.18,8.4-79.55
			c-0.7-1.64-1.5-3.2-2.31-4.74c13.43-10.5,26.1-22.09,37.9-34.68c1.26,1.13,2.55,2.24,3.92,3.27
			c26.26,19.67,85.18,8.63,103.72-20.05c18.53-28.67-10.34-64.11-36.6-83.78c-1.35-1.01-2.73-1.9-4.13-2.76
			c6.81-16.13,12.5-32.95,17-50.35c1.61,0.29,3.23,0.54,4.89,0.68c32.01,2.7,60.33-23.22,63.25-57.88
			c2.92-34.66-20.66-64.95-52.68-67.64c-1.66-0.14-3.3-0.16-4.94-0.15c-1.53-17.9-4.32-35.44-8.34-52.48
			C1319.11,815.33,1320.62,814.69,1322.12,813.92z"/>
		<linearGradient id="SVGID_40_" gradientUnits="userSpaceOnUse" x1="1130.9882" y1="697.0677" x2="236.2507" y2="2662.1438">
			<stop  offset="0" style="stop-color:#FFC444"/>
			<stop  offset="0.9964" style="stop-color:#F36F56"/>
		</linearGradient>
		<path class="st42" d="M1350.15,985.76c32.01,2.7,60.33-23.22,63.25-57.88c2.92-34.66-20.67-64.95-52.68-67.64
			c-1.66-0.14-3.3-0.16-4.94-0.15c-1.53-17.9-4.32-35.44-8.34-52.48c1.52-0.62,3.04-1.27,4.53-2.04
			c29.18-14.99,41.91-52.58,28.44-83.95c-13.48-31.37-48.06-44.64-77.24-29.64c-1.53,0.79-2.98,1.67-4.41,2.57
			c-9.53-14.39-20.08-27.94-31.56-40.53c1.06-1.38,2.1-2.79,3.07-4.28c18.53-28.67,12.27-67.85-13.99-87.52
			c-26.26-19.67-62.58-12.37-81.11,16.3c-0.95,1.47-1.79,2.98-2.61,4.5c-14.83-7.16-30.3-13.08-46.33-17.71
			c0.28-1.75,0.55-3.5,0.7-5.3c2.92-34.66-20.67-64.95-52.68-67.64c-32.01-2.7-60.33,23.22-63.25,57.88
			c-0.15,1.79-0.19,3.57-0.2,5.34c-16.58,1.89-32.83,5.14-48.64,9.72c-0.55-1.64-1.13-3.27-1.82-4.87
			c-13.48-31.37-48.06-44.64-77.24-29.64c-29.18,15-41.91,52.58-28.44,83.95c0.71,1.64,1.5,3.2,2.32,4.74
			c-13.43,10.5-26.1,22.09-37.9,34.68c-1.26-1.13-2.55-2.24-3.92-3.27c-26.26-19.67-62.58-12.37-81.11,16.3
			c-18.53,28.67-12.27,67.85,14,87.52c1.34,1.01,2.73,1.9,4.13,2.77c-6.81,16.13-12.5,32.95-17,50.35
			c-1.61-0.28-3.23-0.54-4.89-0.68c-32.01-2.7-60.33,23.22-63.25,57.88c-2.92,34.66,20.66,64.95,52.68,67.64
			c1.66,0.14,3.3,0.16,4.94,0.15c1.53,17.9,4.32,35.44,8.34,52.48c-1.52,0.62-3.04,1.27-4.53,2.04
			c-29.18,15-41.91,52.58-28.44,83.95c13.48,31.37,48.06,44.64,77.24,29.64c1.53-0.78,2.98-1.66,4.41-2.57
			c9.53,14.39,20.08,27.94,31.56,40.53c-1.06,1.38-2.11,2.79-3.07,4.28c-18.53,28.67-12.27,67.85,14,87.52
			c26.26,19.67,62.58,12.37,81.11-16.3c0.95-1.47,1.79-2.98,2.61-4.5c14.83,7.16,30.31,13.08,46.33,17.72
			c-0.28,1.75-0.55,3.5-0.7,5.3c-2.92,34.66,20.67,64.95,52.68,67.64c32.01,2.7,60.33-23.22,63.25-57.88
			c0.15-1.79,0.19-3.57,0.2-5.34c16.58-1.89,32.83-5.14,48.64-9.72c0.55,1.64,1.13,3.27,1.82,4.87
			c13.48,31.37,48.06,44.64,77.24,29.64c29.18-15,41.91-52.58,28.44-83.95c-0.71-1.64-1.5-3.2-2.32-4.74
			c13.43-10.5,26.1-22.09,37.9-34.68c1.26,1.13,2.55,2.24,3.92,3.27c26.26,19.67,62.58,12.37,81.11-16.3
			c18.53-28.67,12.27-67.85-13.99-87.52c-1.35-1.01-2.73-1.9-4.13-2.76c6.81-16.13,12.5-32.95,17-50.35
			C1346.87,985.36,1348.49,985.62,1350.15,985.76z M1021.01,1124.32c-116.23-9.79-201.86-119.75-191.26-245.6
			c10.6-125.85,113.41-219.94,229.64-210.15c116.23,9.79,201.86,119.75,191.26,245.6
			C1240.06,1040.03,1137.24,1134.11,1021.01,1124.32z"/>
	</g>
	<g>
		<g>
			
				<linearGradient id="SVGID_41_" gradientUnits="userSpaceOnUse" x1="-558.7972" y1="1965.8287" x2="-901.6608" y2="4620.2397" gradientTransform="matrix(-0.996 -0.0892 -0.0892 0.996 509.2159 18.7124)">
				<stop  offset="0" style="stop-color:#AA80F9"/>
				<stop  offset="0.9964" style="stop-color:#6165D7"/>
			</linearGradient>
			<path class="st43" d="M987.59,3154.59c43.76,0.44,100.42-6.65,156.9-36.75c61.1-32.57,143.23-103.39,127.98-154.02
				c-5.69-18.9-25.39-36.41-44.06-36.58c-27.59-0.25-34.19,37.51-85.46,74.64c-9.48,6.86-58.47,42.33-79.87,26.99
				c-10.64-7.63-12.32-26.28-9.24-40.08c9.01-40.33,59.4-42.13,111.25-82.02c52.57-40.44,100.05-114.94,81.64-169.84
				c-10.58-31.55-43.6-58.67-67.33-54c-10.14,1.99-17.13,9.51-52.93,71.63c-29.39,50.99-36.25,66-52.58,69.63
				c-16.81,3.73-41.63-5.06-49.84-22.02c-21.39-44.18,92.84-96.35,113.22-212.8c9.13-52.19,1.89-131.39-44.23-152.36
				c-31.18-14.18-78.58-1.04-97.81,27.01c-17.33,25.28-0.97,46.94-17.73,105.72c-5.09,17.84-15.55,54.55-30.75,55.16
				c-17.85,0.72-33.32-48.67-36.84-60.67c-26.52-90.38,16.88-131.75-11.71-177.04c-22.29-35.31-76.04-53.51-121.06-40.71
				c-39.39,11.2-73.26,46.45-78.83,85.64c-5.66,39.87,24.46,82.76,84.69,168.54c28.56,40.68,51.7,68.51,46.88,105.96
				c-2.35,18.26-11.92,43.38-25.26,44.56c-29.43,2.6-33.24-115.32-100.28-139.48c-34.31-12.37-79.6,1.84-101.63,31.8
				c-26.99,36.7-16.16,93.12,10.78,124.69c35.16,41.19,77.25,16.05,146.13,63.08c30.56,20.86,77.68,63.64,67.45,94.62
				c-4.46,13.48-20.1,25.68-36.11,26.06c-35.87,0.85-42.39-58.4-97.19-89.1c-39.48-22.12-96.54-25.22-112.13-3.23
				c-22.01,31.04,39.08,111.46,72.16,147.54C693.81,3050.78,789.75,3135.29,987.59,3154.59z"/>
			<g class="st44">
				<path class="st7" d="M971.92,3134.51c14.51-97.18-32.3-301.78-70.9-399.94c-37.61-95.65-68.49-244.51-68.8-246l-7.22,1.49
					c0.31,1.5,31.31,150.97,69.16,247.21c38.31,97.41,84.81,300.16,70.47,396.15L971.92,3134.51z"/>
			</g>
		</g>
		
			<linearGradient id="SVGID_42_" gradientUnits="userSpaceOnUse" x1="-603.4662" y1="2695.7351" x2="-1032.8282" y2="3210.4519" gradientTransform="matrix(-0.996 -0.0892 -0.0892 0.996 509.2159 18.7124)">
			<stop  offset="3.597120e-03" style="stop-color:#E38DDD"/>
			<stop  offset="1" style="stop-color:#9571F6"/>
		</linearGradient>
		<path class="st45" d="M1088.87,3176.45c36.78-42.49,92.11-120.15,110.54-229.02c7.59-44.86,22.42-132.48-24.74-213.44
			c-23.51-40.35-75.54-101.57-115.54-88.83c-25.74,8.19-44.69,46.43-40.38,77.18c4.34,31.01,29.76,36.12,53.1,90.17
			c8.64,20,18.45,43.45,8.24,55.28c-8.53,9.88-29.53,9.94-44.58,2.21c-31.09-15.98-17.41-55.24-49.71-87.17
			c-22.97-22.71-63.45-36.04-82.79-20.86c-16.8,13.18-17.15,47.46-5.49,71.37c18.67,38.29,58.92,31.15,80.99,73.17
			c9.79,18.64,15.49,45.98,4.6,55.61c-12.41,10.97-44.84-2.38-65.04-17.55c-26.66-20.03-26.04-38.74-44.42-42.74
			c-20.5-4.46-48.2,12.97-54.21,34.45c-8.42,30.09,26.17,66.46,54.61,83.46c36.41,21.76,65.66,13.52,82,40.27
			c6,9.82,10.9,25.4,4.49,34.01c-9.15,12.29-37.61,5.41-56.51,0.85c-45.99-11.11-57.31-29.17-74.75-22.45
			c-17.66,6.8-28.89,34.11-23.35,54.47c3.08,11.31,13.77,29.37,73.33,45.41C920.92,3183.5,991.6,3195.11,1088.87,3176.45z"/>
	</g>
</g>
</svg>
